<?xml version="1.0" encoding="utf-8"?>
<!-- Generator: Adobe Illustrator 27.5.0, SVG Export Plug-In . SVG Version: 6.00 Build 0)  -->
<svg version="1.1" xmlns="http://www.w3.org/2000/svg" xmlns:xlink="http://www.w3.org/1999/xlink" x="0px" y="0px"
	 viewBox="0 0 3710 3710" style="enable-background:new 0 0 3710 3710;" xml:space="preserve">
<g id="Background">
	<g>
		<g>
			<rect style="fill:#FFFFFF;" width="3710" height="3710"/>
		</g>
	</g>
</g>
<g id="Illustration">
	<g>
		<path style="fill:#F4F7FA;" d="M1967.642,461.161c-309.338,122.998-338.967,437.412-617.492,464.395
			c-242.689,23.511-334.934-204.084-505.221-163.304c-259.396,62.121-422.484,680.55-318.304,1189.055
			c107.572,525.065,559.549,1223.073,1308.333,1270.707c840.67,53.48,1476.765-749.638,1515.602-1454.423
			c4.2-76.219,29.005-714.842-459.231-1092.094C2866.932,656.648,2385.82,294.886,1967.642,461.161z"/>
		<g>
			<defs>
				<rect id="SVGID_13_" x="1608.948" y="1350.353" width="1695.292" height="1864.103"/>
			</defs>
			<clipPath id="SVGID_00000129180975930483776790000005291472049409020319_">
				<use xlink:href="#SVGID_13_"  style="overflow:visible;"/>
			</clipPath>
			<g style="clip-path:url(#SVGID_00000129180975930483776790000005291472049409020319_);">
				<g>
					<g>
						
							<linearGradient id="SVGID_1_" gradientUnits="userSpaceOnUse" x1="-4477.5815" y1="-3209.6489" x2="-3903.0554" y2="463.2249" gradientTransform="matrix(-0.583 -0.8125 -0.8125 0.583 -1862.4246 659.3145)">
							<stop  offset="0.0036" style="stop-color:#E38DDD"/>
							<stop  offset="1" style="stop-color:#9571F6"/>
						</linearGradient>
						<path style="fill:url(#SVGID_1_);" d="M1801.459,3494.445c-19.013-8.985-52.454-45.293-57.27-58.352
							c-32.045-86.905-102.612-245.719-67.043-336.947c6.075-15.581,81.829-7.359,96.494-18.719
							c49.571-6.481,67.17-5.655,111.269-34.967c130.193-86.537-10.025-373.495,260.32-370.944
							c198.023,1.869,329.849,112.948,400.821-172.442s456.889-722.42,688.635-432.345
							c133.001,166.476-115.518,348.285-85.129,551.53c28.877,193.135-85.97,307.286-295.022,349.948
							c-209.052,42.661-139.47,149.969-139.259,324.698c0.253,209.886-302.792,149.011-440.303,108.972
							C2164.238,3372.632,1860.517,3365.239,1801.459,3494.445z"/>
						<g>
							<defs>
								<path id="SVGID_16_" d="M1639.981,3060.574c0.159,144.553-5.634,291.653-6.26,437.224
									c76.17,31.649,166.54,67.023,214.965-23.549c67.325-125.923,316.128-102.351,426.599-69.546
									c136.729,40.602,440.424,100.898,440.015-108.832c-0.34-174.599-69.781-282.046,139.25-324.674
									c209.032-42.628,323.847-156.806,295.01-349.951c-30.348-203.255,218.085-384.96,85.126-551.523
									c-231.674-290.227-617.834,147.225-688.559,432.253s-203.64,175.435-400.688,172.269
									c-269.013-4.322-133.702,289.098-258.995,368.909C1788.222,3105.722,1737.63,3072.122,1639.981,3060.574z"/>
							</defs>
							<clipPath id="SVGID_00000153700245064040360920000017628542950332664502_">
								<use xlink:href="#SVGID_16_"  style="overflow:visible;"/>
							</clipPath>
							<g style="opacity:0.8;clip-path:url(#SVGID_00000153700245064040360920000017628542950332664502_);">
								<path style="fill:#FCFDFE;" d="M1710.494,3275.999l-0.502-3.557c175.07-24.767,343.725-76.094,501.282-152.557
									c151.403-73.476,292.799-170.218,420.258-287.54c247.487-227.804,438.478-529.579,552.324-872.702l3.409,1.131
									c-114.039,343.7-305.366,645.998-553.3,874.214c-127.717,117.559-269.404,214.498-421.122,288.129
									C2054.948,3199.742,1885.935,3251.18,1710.494,3275.999z"/>
								<path style="fill:#FCFDFE;" d="M2725.646,3382.772c-152.291-111.026-436.773-204.754-634.16-208.935l0.077-3.592
									c198.008,4.195,483.406,98.232,636.198,209.626L2725.646,3382.772z"/>
								<path style="fill:#FCFDFE;" d="M1844.038,3255.561l-1.47-3.276c93.73-42.012,162.613-129.77,204.739-260.84
									c30.87-96.056,46.919-212.717,47.697-346.743l3.592,0.021c-0.782,134.393-16.887,251.417-47.871,347.82
									C2008.277,3124.624,1938.736,3213.118,1844.038,3255.561z"/>
								<path style="fill:#FCFDFE;" d="M2668.001,2801.152l-1.635-3.199c172.253-88.095,373.974-61.305,512.86-23.318l-0.947,3.465
									C3040.004,2740.279,2839.234,2713.581,2668.001,2801.152z"/>
								<path style="fill:#FCFDFE;" d="M2949.96,2459.579l-3.329-1.35c35.21-86.82,79.276-272.047-21.214-537.09l3.359-1.273
									c33.921,89.472,54.79,182.55,60.344,269.172C2995.514,2288.718,2982.338,2379.742,2949.96,2459.579z"/>
							</g>
						</g>
					</g>
				</g>
				<g>
					<g>
						<defs>
							<path id="SVGID_20_" d="M2270.161,3732.993c-105.772-15.554-211.438-33.541-316.911-53.949
								c-1.716,1.551-36.386-228.362,72.823-348.936c215.958-233.583,70.494-443.221,29.001-567.441
								c-66.407-175.165-32.371-388.065,160.557-348.187c187.958,34.343,216.469-352.609,184.028-650.71
								c-27.688-145.088,109.207-321.127,245.816-361.359c139.459-44.573,278.631,46.662,321.281,335.862
								c64.567,334.848-179.803,536.776-270.292,704.656c-89.037,164.804,118.087,298.146-48.625,444.167
								c-140.227,129.748-316.961,223.019-252.31,385.999C2461.953,3434.231,2446.051,3565.969,2270.161,3732.993z"/>
						</defs>
						<clipPath id="SVGID_00000064350374940391441860000013995429061100137145_">
							<use xlink:href="#SVGID_20_"  style="overflow:visible;"/>
						</clipPath>
						
							<linearGradient id="SVGID_00000104705765437881486400000008275030439987228302_" gradientUnits="userSpaceOnUse" x1="6.76" y1="-757.6624" x2="-752.7009" y2="1400.8075" gradientTransform="matrix(-0.8674 -0.4976 -0.4976 0.8674 2274.7078 2110.0093)">
							<stop  offset="0" style="stop-color:#FFC444"/>
							<stop  offset="0.9964" style="stop-color:#F36F56"/>
						</linearGradient>
						
							<path style="clip-path:url(#SVGID_00000064350374940391441860000013995429061100137145_);fill:url(#SVGID_00000104705765437881486400000008275030439987228302_);" d="
							M2270.161,3732.993c-105.772-15.554-211.438-33.541-316.911-53.949c-1.716,1.551-36.386-228.362,72.823-348.936
							c215.958-233.583,70.494-443.221,29.001-567.441c-65.74-175.035-31.164-364.576,146.986-367.378
							c197.589-6.976,233.413-334.019,197.599-631.519c-27.688-145.088,109.207-321.127,245.816-361.359
							c139.459-44.573,278.631,46.662,321.281,335.862c64.567,334.848-179.803,536.776-270.292,704.656
							c-89.037,164.804,118.087,298.146-48.625,444.167c-140.227,129.748-316.961,223.019-252.31,385.999
							C2461.953,3434.231,2446.051,3565.969,2270.161,3732.993z"/>
						<g style="opacity:0.8;clip-path:url(#SVGID_00000064350374940391441860000013995429061100137145_);">
							<path style="fill:#FCFDFE;" d="M2128.359,3746.616l-3.59-0.044c-0.031-2.041,101.017-485.584,275.316-956.354
								c24.072-76.238,50.221-153.116,75.509-227.462c67.72-199.091,137.745-404.961,171.001-609.959
								c37.175-229.162,23.925-435.563-40.509-630.998l3.413-1.126c64.618,195.996,77.911,402.953,40.64,632.699
								c-33.302,205.295-103.378,411.31-171.145,610.54c-25.282,74.328-51.424,151.187-75.514,227.471
								C2229.813,3260.458,2128.589,3743.872,2128.359,3746.616z"/>
							<path style="fill:#FCFDFE;" d="M2601.463,2177.669l-2.669-2.403c117.925-131.024,260.205-317.222,336.643-417.254
								c59.644-78.053,61.738-80.228,64.05-79.86l-0.554,3.55l0.277-1.775l0.679,1.622c-3.004,1.966-28.862,35.805-61.598,78.644
								C2861.823,1860.266,2719.485,2046.538,2601.463,2177.669z"/>
							<path style="fill:#FCFDFE;" d="M2637.712,1998.157c-24.442-150.451-86.447-249.356-134.158-305.837
								c-53.145-62.911-101.022-89.411-105.84-89.854c0.004,0.002,0.365,0.03,0.782-0.249l-1.996-2.985
								c0.942-0.626,2.173-0.444,4.87,0.729c13.037,5.668,61.761,36.151,112.895,99.707
								c64.423,80.072,108.337,183.089,126.992,297.913L2637.712,1998.157z"/>
							<path style="fill:#FCFDFE;" d="M2299.972,3097.999l-3.567-0.424c16.64-139.774-15.928-290.112-96.8-446.838
								c-42.171-81.728-95.95-161.791-159.842-237.966c-4.418-5.267-6.229-7.438-6.736-8.313l3.108-1.8
								c0.37,0.64,3.022,3.801,6.38,7.804c64.062,76.377,117.988,156.663,160.282,238.625
								C2284.004,2806.464,2316.698,2957.499,2299.972,3097.999z"/>
							<path style="fill:#FCFDFE;" d="M2347.686,2950.775l-3.055-1.891c126.72-204.728,393.814-218.981,396.099-218.267l1.34,1.682
								l-1.233,1.766l-0.565-1.677l-0.172,1.749c-0.01,0-0.026,0-0.045,0C2735.369,2734.137,2473.312,2747.813,2347.686,2950.775z
								 M2739.69,2730.663l0.572,1.696L2739.69,2730.663z"/>
							<path style="fill:#FCFDFE;" d="M2146.013,3667.734l-3.588-0.133c2.236-60.879-19.518-164.642-135.858-313.248
								c-6.217-7.941-6.217-7.941-6.066-8.997l3.557,0.512l-1.778-0.256l1.659-0.64c0.312,0.595,2.696,3.641,5.458,7.166
								C2126.404,3501.599,2148.271,3606.255,2146.013,3667.734z"/>
							<path style="fill:#FCFDFE;" d="M2172.885,3553.077l-3.451-1c13.39-46.203,66.108-136.736,268.734-223.972
								c2.815-1.212,4.626-1.989,5.272-2.32l1.642,3.195c-0.672,0.345-2.559,1.161-5.493,2.424
								C2238.317,3418.056,2186.098,3507.483,2172.885,3553.077z"/>
						</g>
					</g>
				</g>
			</g>
		</g>
		<g>
			<g>
				<g>
					
						<linearGradient id="SVGID_00000051375048797690823970000009818599744589805214_" gradientUnits="userSpaceOnUse" x1="2830.0652" y1="878.3231" x2="2141.728" y2="844.4699">
						<stop  offset="0" style="stop-color:#FFC444"/>
						<stop  offset="0.9964" style="stop-color:#F36F56"/>
					</linearGradient>
					<path style="fill:url(#SVGID_00000051375048797690823970000009818599744589805214_);" d="M2137.886,650.256
						c116.261-49.027,227.129-35.806,282.485-14.974c65.439,24.627,87.147,43.106,145.078,52.406
						c51.491,8.266,104.945-45.444,145.078-7.486c2.702,2.556,6.028,5.737,9.765,11.23c28.752,42.262-5.212,93.305,4.185,182.487
						c4.808,45.629,16.442,58.293,27.202,145.989c4.092,33.348,3.237,38.26,2.093,42.112
						c-17.585,59.175-157.094,47.993-255.282,22.46c-135.369-35.201-178.95-94.236-267.837-67.379
						c-41.003,12.388-72.163,37.167-92.069,56.15C2147.651,932.875,2128.819,790.63,2137.886,650.256z"/>
					<g>
						<path style="fill:#26264F;" d="M2139.353,1967.517c-3.022,0-5.471-2.449-5.471-5.471V608.523c0-3.022,2.449-5.471,5.471-5.471
							c3.022,0,5.471,2.449,5.471,5.471v1353.524C2144.823,1965.069,2142.375,1967.517,2139.353,1967.517z"/>
					</g>
				</g>
			</g>
			<g>
				
					<linearGradient id="SVGID_00000152240042999166636130000005378711933125213313_" gradientUnits="userSpaceOnUse" x1="787.0894" y1="1844.7714" x2="810.6707" y2="1916.7456" gradientTransform="matrix(0.444 0.896 -0.896 0.444 3455.7615 -448.1513)">
					<stop  offset="0" style="stop-color:#FFC444"/>
					<stop  offset="0.9964" style="stop-color:#F36F56"/>
				</linearGradient>
				<path style="fill:url(#SVGID_00000152240042999166636130000005378711933125213313_);" d="M2115.352,1110.591l9.793-13.653
					c0,0-1.881-7.164,1.304-12.413c3.185-5.249,3.185-5.249,3.185-5.249s4.149-3.892,12.095-1.166
					c1.796,0.616,3.776,0.414,5.338-0.665c4.691-3.239,5.945,5.684,5.945,5.684s3.394,3.972,0.35,7.422c0,0-0.397,5.084-4.186,7.693
					c-3.788,2.61-13.944,6.901-13.944,6.901l-10.944,13.167L2115.352,1110.591z"/>
				
					<linearGradient id="SVGID_00000128455113686563786550000014035784066900846481_" gradientUnits="userSpaceOnUse" x1="493.944" y1="2627.8562" x2="771.874" y2="1985.6686" gradientTransform="matrix(0.444 0.896 -0.896 0.444 3455.7615 -448.1513)">
					<stop  offset="0" style="stop-color:#FF9085"/>
					<stop  offset="1" style="stop-color:#FB6FBB"/>
				</linearGradient>
				<path style="fill:url(#SVGID_00000128455113686563786550000014035784066900846481_);" d="M2113.801,1096.19
					c-70.024,27.885-114.954,16.974-135.898,9.11c-26.299-9.874-51.51-27.994-51.51-27.994
					c-35.604-25.591-49.539-51.052-84.638-56.57c-2.649-0.416-10.481-1.515-19.086-0.753
					c-50.623,4.481-106.975,71.468-99.728,116.024c12.564,77.242,227.604,156.793,345.691,70.811
					c38.016-27.68,57.049-66.011,66.756-92.044C2128.194,1108.579,2120.998,1102.386,2113.801,1096.19z"/>
				
					<linearGradient id="SVGID_00000111874652600131504990000008218067243437441409_" gradientUnits="userSpaceOnUse" x1="929.9914" y1="1987.8256" x2="985.5238" y2="1987.8256" gradientTransform="matrix(-0.996 0.0897 0.0897 0.996 2456.5469 -160.4537)">
					<stop  offset="0" style="stop-color:#444B8C"/>
					<stop  offset="0.9964" style="stop-color:#26264F"/>
				</linearGradient>
				<path style="fill:url(#SVGID_00000111874652600131504990000008218067243437441409_);" d="M1656.661,1894.625
					c-2.881,2.649-3.063,8.836-3.182,12.88c-0.054,1.806-0.081,2.71,0.159,3.333c1.747,4.54,10.753,4.479,24.918,5.059
					c22.385,0.917,29.112,2.264,30.652-1.152c1.442-3.202-2.816-8.042-3.294-8.575c-2.574-2.865-5.575-3.781-11.361-5.303
					c-10.707-2.814-17.913-4.274-20.095-4.716C1660.832,1893.389,1658.553,1892.886,1656.661,1894.625z"/>
				
					<linearGradient id="SVGID_00000092424518285915762150000015344670205329287303_" gradientUnits="userSpaceOnUse" x1="499.3033" y1="1935.7605" x2="523.6673" y2="1885.3325" gradientTransform="matrix(-0.9976 0.0694 0.0694 0.9976 2040.621 -60.6691)">
					<stop  offset="0" style="stop-color:#FFC444"/>
					<stop  offset="0.9964" style="stop-color:#F36F56"/>
				</linearGradient>
				<path style="fill:url(#SVGID_00000092424518285915762150000015344670205329287303_);" d="M1672.361,1872.303l0.873,25.48
					c-0.698,1.192-8.432,4.462-14.251,0.992l-4.392-25.235L1672.361,1872.303z"/>
				
					<linearGradient id="SVGID_00000104674652345404252350000003573762061800143274_" gradientUnits="userSpaceOnUse" x1="516.0774" y1="2044.8331" x2="575.0767" y2="2044.8331" gradientTransform="matrix(-0.977 0.2133 0.2133 0.977 1968.0525 -210.6557)">
					<stop  offset="0" style="stop-color:#444B8C"/>
					<stop  offset="0.9964" style="stop-color:#26264F"/>
				</linearGradient>
				<path style="fill:url(#SVGID_00000104674652345404252350000003573762061800143274_);" d="M1845.223,1894.963
					c-3.849,3.82-5.072,11.167-2.106,14.976c2.915,3.746,7.73,1.311,20.957,2.413c14.168,1.182,17.694,4.731,27.48,2.586
					c3.953-0.869,10.974-3.114,10.992-5.903c0.013-1.961-3.436-3.158-14.928-7.703c-16.311-6.45-16.222-6.75-19.717-7.523
					C1859.122,1891.869,1850.306,1889.92,1845.223,1894.963z"/>
				
					<linearGradient id="SVGID_00000151538237493226717150000003579147276845321892_" gradientUnits="userSpaceOnUse" x1="404.479" y1="1995.4728" x2="429.3589" y2="1943.9773" gradientTransform="matrix(-0.9894 0.1453 0.1453 0.9894 1974.5804 -128.6684)">
					<stop  offset="0" style="stop-color:#FFC444"/>
					<stop  offset="0.9964" style="stop-color:#F36F56"/>
				</linearGradient>
				<path style="fill:url(#SVGID_00000151538237493226717150000003579147276845321892_);" d="M1855.551,1872.303l5.854,24.057
					c-0.606,1.241-8.068,5.091-14.135,2.076l-9.343-23.545L1855.551,1872.303z"/>
				
					<linearGradient id="SVGID_00000085941542108571927230000013063409184938775701_" gradientUnits="userSpaceOnUse" x1="2217.2778" y1="1703.7963" x2="2059.9153" y2="1349.0637" gradientTransform="matrix(0.9986 0.0533 -0.0533 0.9986 -237.5799 -19.3005)">
					<stop  offset="0" style="stop-color:#311944"/>
					<stop  offset="1" style="stop-color:#893976"/>
				</linearGradient>
				<path style="fill:url(#SVGID_00000085941542108571927230000013063409184938775701_);" d="M1820,1350.377
					c-3.229,79.625-2.577,169.382,5.261,267.279c7.746,96.756,21.156,184.523,36.764,261.904
					c-9.212,1.959-18.423,3.917-27.635,5.875c-21.892-22.713-49.151-58.083-60.623-106.623c-7.12-30.126-3.405-45.213-6.978-81.991
					c-5.689-58.559-21.87-89.944-37.773-137.769c-14.291-42.976-30.541-105.796-36.613-188.931
					C1734.935,1363.541,1777.468,1356.959,1820,1350.377z"/>
				
					<linearGradient id="SVGID_00000009586275572894775080000012601297116217554094_" gradientUnits="userSpaceOnUse" x1="2192.8745" y1="1714.6208" x2="2035.5123" y2="1359.8889" gradientTransform="matrix(0.9986 0.0533 -0.0533 0.9986 -237.5799 -19.3005)">
					<stop  offset="0" style="stop-color:#311944"/>
					<stop  offset="1" style="stop-color:#893976"/>
				</linearGradient>
				<path style="opacity:0.3;fill:url(#SVGID_00000009586275572894775080000012601297116217554094_);" d="M1807.277,1722.5
					c-10.143-40.17-29.684-50.792-30.38-88.709c-0.492-26.82,9.146-29.013,8.506-54.684c-0.97-38.939-23.781-59.356-35.241-83.849
					c-12.103-25.868-16.74-67.418,15.878-136.531c-24.546,3.798-49.092,7.597-73.638,11.395
					c6.072,83.134,22.322,145.955,36.613,188.93c15.903,47.826,32.084,79.211,37.773,137.769
					c3.573,36.778-0.142,51.865,6.978,81.991c11.472,48.54,38.731,83.909,60.623,106.623c2.343-0.498,4.686-0.996,7.029-1.494
					c-23.666-28.248-32.017-53.476-34.141-73.946C1803.821,1776.691,1817.503,1763.003,1807.277,1722.5z"/>
				
					<linearGradient id="SVGID_00000143586581195450663680000011872264556403530152_" gradientUnits="userSpaceOnUse" x1="1833.5054" y1="1858.6676" x2="1676.139" y2="1503.9263" gradientTransform="matrix(0.9976 -0.0694 0.0694 0.9976 -160.8932 92.9864)">
					<stop  offset="0" style="stop-color:#311944"/>
					<stop  offset="1" style="stop-color:#893976"/>
				</linearGradient>
				<path style="fill:url(#SVGID_00000143586581195450663680000011872264556403530152_);" d="M1727.928,1345.4
					c-10.963,100.903-21.039,203.743-30.105,308.468c-6.804,78.585-12.864,156.21-18.228,232.844
					c-9.337,0.65-18.675,1.3-28.013,1.949c-8.072-17.167-18.615-43.317-25.025-76.455c-7.785-40.247-4.232-63.71-6.377-105.107
					c-2.409-46.429-8.951-56.865-18.383-115.776c-19.142-119.558-28.714-179.338,1.644-214.584
					C1613.295,1365.297,1643.79,1336.902,1727.928,1345.4z"/>
				
					<linearGradient id="SVGID_00000133517104032632249090000016897469669357520266_" gradientUnits="userSpaceOnUse" x1="1585.7474" y1="1411.0562" x2="1826.3556" y2="855.1046">
					<stop  offset="0" style="stop-color:#FF9085"/>
					<stop  offset="1" style="stop-color:#FB6FBB"/>
				</linearGradient>
				<path style="fill:url(#SVGID_00000133517104032632249090000016897469669357520266_);" d="M1486.103,1031.63
					c50.44-17.101,127.402-36.052,221.527-32.173c54.527,2.247,101.405,11.603,138.548,22.007
					c5.022,28.087,10.044,56.175,15.066,84.261c1.155,28.162,1.527,66.31-1.637,111.384c-3.164,45.07-6.262,45.749-13.51,109.37
					c-11.817,103.729-6.875,130.83-27.722,143.29c-13.559,8.105-18.464-1.679-87.656-8.536c-46.396-4.599-70.074-6.736-93.57,1.215
					c-31.995,10.826-42.701,29.002-55.9,23.089c-12.657-5.672-14.269-27.524-15.797-65.621c-2.358-58.77-2.213-98.715-2.43-113.014
					c-0.998-65.604-17.61-115.696-38.887-179.849C1510.828,1086.929,1496.812,1054.455,1486.103,1031.63z"/>
				<g>
					
						<linearGradient id="SVGID_00000003818637590499460390000016317382068132879036_" gradientUnits="userSpaceOnUse" x1="1895.728" y1="443.8445" x2="1901.922" y2="278.8574" gradientTransform="matrix(0.8944 0.4471 -0.4471 0.8944 171.027 -182.9961)">
						<stop  offset="0" style="stop-color:#FFC444"/>
						<stop  offset="0.9964" style="stop-color:#F36F56"/>
					</linearGradient>
					<path style="fill:url(#SVGID_00000003818637590499460390000016317382068132879036_);" d="M1701.398,934.466
						c-0.742,16.494-3.279,29.471-5.498,38.333c-2.541,10.153-4.119,12.727-6.067,14.78c-2.932,3.091-7.259,5.583-31.197,10.18
						c-13.026,2.501-14.676,2.326-15.029,3.586c-1.716,6.15,32.208,29.235,68.699,26.056c22.334-1.945,43.177-13.515,42.294-20.221
						c-0.889-6.751-23.222-4.347-29.177-16.791c-4.141-8.656,1.642-20.323,8.254-29.887
						C1728.375,949.149,1706.7,945.819,1701.398,934.466z"/>
					<g>
						
							<linearGradient id="SVGID_00000069382676940211913940000010464013802147485570_" gradientUnits="userSpaceOnUse" x1="75.1032" y1="769.3533" x2="33.1081" y2="662.6934" gradientTransform="matrix(-0.9988 -0.0496 -0.0496 0.9988 1789.584 252.4768)">
							<stop  offset="0" style="stop-color:#311944"/>
							<stop  offset="1" style="stop-color:#6B3976"/>
						</linearGradient>
						<path style="fill:url(#SVGID_00000069382676940211913940000010464013802147485570_);" d="M1742.191,943.181
							c5.603-6.67,6.573-18.784,0.955-26.775c-4.835-6.876-12.947-8.253-17.804-9.079c-14.074-2.391-32.258,2.566-39.169,15.268
							c-4.094,7.527,3.015,24.002,4.108,26.954c1.239,3.338,3.74,4.594,5.978,7.187c3.101,3.597,7.951,9.31,15.855,18.856
							c0.795-2.65,1.964-5.92,3.731-9.438c0.68-1.355,3.404-6.639,7.328-10.932C1731.034,946.615,1736.881,949.502,1742.191,943.181
							z"/>
						
							<linearGradient id="SVGID_00000135661220329283343240000003790819482380484224_" gradientUnits="userSpaceOnUse" x1="1427.324" y1="730.7196" x2="1425.3927" y2="886.3246" gradientTransform="matrix(0.9999 -0.0116 0.0116 0.9999 281.3529 228.061)">
							<stop  offset="0" style="stop-color:#FFC444"/>
							<stop  offset="0.9964" style="stop-color:#F36F56"/>
						</linearGradient>
						<path style="fill:url(#SVGID_00000135661220329283343240000003790819482380484224_);" d="M1700.553,967.302
							c0,0,8.494,15.771,27.095,15.555c16.653-0.194,21.071-37.281,10.893-45.744c-3.396-2.824-10.42-4.297-16.265-2.99
							c-3.452,0.772-4.68,2.124-10.345,3.274c-5.226,1.063-6.651,0.414-8.277,1.639c-2.033,1.535-3.674,5.473-1.005,16.527
							c-2.995-3.374-6.73-4.808-9.491-3.681c-0.44,0.181-1.621,0.895-2.325,2.036
							C1688.286,958.043,1691.879,963.68,1700.553,967.302z"/>
						
							<linearGradient id="SVGID_00000173150716886940144050000008117600451331658911_" gradientUnits="userSpaceOnUse" x1="62.275" y1="774.4615" x2="20.2364" y2="667.6912" gradientTransform="matrix(-0.9988 -0.0496 -0.0496 0.9988 1789.584 252.4768)">
							<stop  offset="0" style="stop-color:#311944"/>
							<stop  offset="1" style="stop-color:#6B3976"/>
						</linearGradient>
						<path style="fill:url(#SVGID_00000173150716886940144050000008117600451331658911_);" d="M1703.022,936.769
							c0.768,0.64-1.837,3.494-2.245,7.711c-0.793,8.184,6.984,18.475,15.411,19.763c4.982,0.76,6.52-2.184,14.845-2.617
							c5.155-0.268,9.387,0.613,12.04,1.343c2.121,9.136-0.806,17.975-7.042,21.816c-6.714,4.135-14.839,0.975-18.237-0.346
							c-2.272-0.884-9.556-3.7-13.067-10.705c-3.658-7.299,0.531-11.358-3.844-16.396c-2.207-2.541-5.218-3.752-7.956-8.59
							c-0.743-1.314-1.225-2.468-1.515-3.241C1695.937,941.198,1701.909,935.842,1703.022,936.769z"/>
						
							<linearGradient id="SVGID_00000168796086664557241400000002248404020873693878_" gradientUnits="userSpaceOnUse" x1="21.1319" y1="710.1287" x2="23.3182" y2="729.6189" gradientTransform="matrix(-0.9988 -0.0496 -0.0496 0.9988 1789.584 252.4768)">
							<stop  offset="0" style="stop-color:#FFC444"/>
							<stop  offset="1" style="stop-color:#F36F56"/>
						</linearGradient>
						<path style="fill:url(#SVGID_00000168796086664557241400000002248404020873693878_);" d="M1736.87,965.981
							c0,0-3.684,1.682-9.859,1.002c-0.3-0.033-0.637,0.037-0.684,0.191c-0.174,0.58,3.659,3.427,7.375,2.594
							c2.639-0.593,4.793-2.946,4.476-3.591C1738.044,965.906,1737.455,965.909,1736.87,965.981z"/>
					</g>
				</g>
				
					<linearGradient id="SVGID_00000138550070213673541740000010513924439839969452_" gradientUnits="userSpaceOnUse" x1="1557.9542" y1="1295.6702" x2="1569.1228" y2="1329.7588">
					<stop  offset="0" style="stop-color:#FFC444"/>
					<stop  offset="0.9964" style="stop-color:#F36F56"/>
				</linearGradient>
				<path style="fill:url(#SVGID_00000138550070213673541740000010513924439839969452_);" d="M1532.641,1306.956l16.698-0.932
					c0,0,18.295-15.31,26.622-14.354c8.327,0.955,20.783,6.733,22.302,7.946c1.519,1.212-4.557,8.001-10.633,7.341
					c-6.076-0.661-19.634,2.618-22.059,7.97c-2.425,5.352-12.948,8.585-14.736,5.446l-22.446,4.455L1532.641,1306.956z"/>
				
					<linearGradient id="SVGID_00000081616098344917016350000006011759289151172495_" gradientUnits="userSpaceOnUse" x1="1401.3733" y1="1331.2611" x2="1641.9823" y2="775.3079">
					<stop  offset="0" style="stop-color:#FF9085"/>
					<stop  offset="1" style="stop-color:#FB6FBB"/>
				</linearGradient>
				<path style="fill:url(#SVGID_00000081616098344917016350000006011759289151172495_);" d="M1537.693,1301.114
					c1.169,13.699-1.815,23.003-6.794,29.382c-22.069,28.279-97.073,16.716-141.651-21.162
					c-32.997-28.038-50.469-71.573-49.823-110.583c1.26-76.118,71.803-150.705,176.735-176.473
					c15.533,46.432,31.066,92.863,46.598,139.296c-64.693,0.987-103.996,49.755-98.168,84.57
					C1468.932,1272.079,1499.181,1295.408,1537.693,1301.114z"/>
				
					<linearGradient id="SVGID_00000139258421064176873020000010401876318321426599_" gradientUnits="userSpaceOnUse" x1="1629.9742" y1="1430.1967" x2="1870.5844" y2="874.2408">
					<stop  offset="0" style="stop-color:#FF9085"/>
					<stop  offset="1" style="stop-color:#FB6FBB"/>
				</linearGradient>
				<path style="opacity:0.3;fill:url(#SVGID_00000139258421064176873020000010401876318321426599_);" d="M1791.479,1435.714
					c-34.032-14.521-33.835-44.573-65.62-57.115c-45.357-17.897-95.468,23.681-103.292,12.152
					c-8.142-11.996,51.709-48.783,43.747-85.064c-6.328-28.832-48.106-23.723-70.482-63.19
					c-21.227-37.439-0.648-72.053-19.443-85.064c-6.741-4.667-18.631-6.508-41.175,3.413c15.72,49.095,26.992,92.389,27.808,146.056
					c0.217,14.298,0.072,54.244,2.43,113.014c1.529,38.097,3.141,59.949,15.797,65.621c13.198,5.914,23.905-12.263,55.9-23.089
					c23.495-7.951,47.173-5.814,93.57-1.215c69.192,6.858,74.097,16.641,87.656,8.536c8.831-5.278,13.029-13.214,15.839-28.458
					C1820.342,1442.808,1805.626,1441.75,1791.479,1435.714z"/>
			</g>
		</g>
		<g>
			<g>
				<g>
					<path style="fill:#D8DEE8;" d="M1612.026,2287.624c-192.646,6.84-385.23,14.637-577.74,23.393
						c-53.052,2.414-96.301-56.192-97.473-130.955c-0.258-16.906-0.518-33.812-0.778-50.718
						c-1.179-74.759,40.425-139.759,93.776-145.163c193.443-19.599,387.068-38.238,580.864-55.914
						C1611.127,2048.053,1611.575,2167.839,1612.026,2287.624z"/>
					
						<linearGradient id="SVGID_00000162316960697551647840000007436566850568154555_" gradientUnits="userSpaceOnUse" x1="2565.678" y1="2114.0527" x2="3370.6191" y2="2122.8499" gradientTransform="matrix(1 0 0 1 -1675.0461 0)">
						<stop  offset="0" style="stop-color:#AA80F9"/>
						<stop  offset="0.9964" style="stop-color:#6165D7"/>
					</linearGradient>
					<path style="fill:url(#SVGID_00000162316960697551647840000007436566850568154555_);" d="M1530.776,2304.27
						c-163.059,7.271-326.068,15.228-489.015,23.87c-69.146,2.927-125.444-73.615-127.013-170.737
						c-0.004-0.355-0.014-0.711-0.018-1.067c-1.555-97.117,52.55-182.023,122.132-189.253
						c163.8-20.203,327.76-39.719,491.873-58.545c8.639-0.833,108.885,7.824,108.917,18.478
						c0.034,10.608-93.481,19.041-102.05,19.824c-166.238,17.676-332.331,36.059-498.266,55.15
						c-56.185,5.505-100.086,73.949-98.867,152.56c0.007,0.357,0.011,0.714,0.016,1.072c1.234,78.61,46.909,140.309,102.803,137.613
						c163.029-9.76,326.127-18.834,489.291-27.223c8.543-0.387,108.236,10.01,108.26,20.667
						C1638.867,2297.282,1539.354,2303.925,1530.776,2304.27z"/>
				</g>
				<g>
					<path style="fill:#F4F7FA;" d="M2723.284,2275.692c-393.559-0.916-787.06,2.161-1180.443,9.229
						c-0.593-119.451-1.184-238.901-1.776-358.351c395.858,3.191,791.62,10.397,1187.24,21.615
						C2726.63,2057.354,2724.96,2166.523,2723.284,2275.692z"/>
					
						<linearGradient id="SVGID_00000156553881926490547680000009338310341902977215_" gradientUnits="userSpaceOnUse" x1="-4717.8823" y1="1147.0632" x2="-6886.4067" y2="945.5363" gradientTransform="matrix(1 0 0 1 -1675.0461 0)">
						<stop  offset="0" style="stop-color:#AA80F9"/>
						<stop  offset="0.9964" style="stop-color:#6165D7"/>
					</linearGradient>
					<path style="fill:url(#SVGID_00000156553881926490547680000009338310341902977215_);" d="M2737.835,1967.008
						c-402.848-10.898-805.833-17.636-1208.902-20.21c-8.176-0.05-14.847-8.67-14.904-19.243
						c-0.082-10.578,6.536-19.088,14.706-19.016c403.338,3.689,806.576,11.544,1209.641,23.562c6.796,0.2,12.17,8.177,12.024,17.805
						C2750.244,1959.534,2744.616,1967.195,2737.835,1967.008z"/>
					
						<linearGradient id="SVGID_00000056413574309843157100000011580499404099180180_" gradientUnits="userSpaceOnUse" x1="-4687.2769" y1="1491.8792" x2="-6841.9248" y2="1291.6418" gradientTransform="matrix(1 0 0 1 -1675.0461 0)">
						<stop  offset="0" style="stop-color:#AA80F9"/>
						<stop  offset="0.9964" style="stop-color:#6165D7"/>
					</linearGradient>
					<path style="fill:url(#SVGID_00000056413574309843157100000011580499404099180180_);" d="M2732.779,2293.168
						c-400.761-0.44-801.449,3.262-1202.003,11.103c-8.094,0.157-14.761-8.286-14.809-18.86
						c-0.055-10.576,6.491-19.258,14.612-19.398c400.825-6.726,801.759-9.31,1202.742-7.75c6.763,0.025,12.109,7.855,11.962,17.485
						C2745.126,2285.378,2739.534,2293.175,2732.779,2293.168z"/>
				</g>
			</g>
			<g>
				
					<linearGradient id="SVGID_00000007421552310383503430000018445196980171996832_" gradientUnits="userSpaceOnUse" x1="3059.6641" y1="2183.6543" x2="2831.4319" y2="2952.4377" gradientTransform="matrix(1 0 0 1 -1675.0461 0)">
					<stop  offset="0" style="stop-color:#40447E"/>
					<stop  offset="0.9964" style="stop-color:#3C3B6B"/>
				</linearGradient>
				<path style="fill:url(#SVGID_00000007421552310383503430000018445196980171996832_);" d="M1619.58,2298.567h-0.107
					l-18.246-0.144l-79.449,2.407l-469.186,16.36c-13.9,0.359-27.189,2.918-39.581,7.587
					c-54.055,20.365-90.835,78.502-86.777,145.559l0.072,0.873c4.455,74.205,57.468,134.246,122.262,143.441
					c6.68,0.97,13.541,1.359,20.437,1.179l392.827-15.339l62.208-2.444l23.958-0.935l69.104-3.071l14.439-0.952h0.107l4.921,0.197
					l10.021-0.206l0.288-2.851l1.149-12.596l0.144-1.521l0.935-10.261l22.124-241.609l1.401-15.298l0.647-7.29l0.61-5.782
					L1619.58,2298.567z"/>
				<g>
					<path style="fill:#F4F7FA;" d="M2725.2,2573.48l-1035.203,6.489c-86.125,0.54-157.41-49.621-159.625-112.24l-1.508-42.61
						c-2.229-63.003,65.98-115.253,152.761-116.5l1043.369-15.001L2725.2,2573.48z"/>
					
						<linearGradient id="SVGID_00000163067035836991007710000002479971292415660423_" gradientUnits="userSpaceOnUse" x1="3180.6001" y1="2436.9587" x2="4425.4497" y2="2436.9587" gradientTransform="matrix(1 0 0 1 -1675.0461 0)">
						<stop  offset="0" style="stop-color:#40447E"/>
						<stop  offset="0.9964" style="stop-color:#3C3B6B"/>
					</linearGradient>
					<path style="fill:url(#SVGID_00000163067035836991007710000002479971292415660423_);" d="M2736.379,2588.214l-1090.321,6.366
						c-74.592,0.436-137.419-65.351-140.364-146.998l-0.032-0.899c-2.959-82.039,55.568-149.972,130.787-151.084l1099.805-16.263
						c7.814-0.115,14.151,6.537,14.151,14.855c0,8.314-6.331,15.14-14.138,15.248l-1098.881,15.29
						c-60.608,0.844-107.847,55.532-105.511,121.683l0.032,0.9c2.327,65.895,53.031,118.991,113.231,118.588l1091.231-7.308
						c7.751-0.052,14.037,6.544,14.037,14.729C2750.403,2581.503,2744.123,2588.169,2736.379,2588.214z"/>
				</g>
			</g>
			<g>
				
					<linearGradient id="SVGID_00000124856204770050734990000001335749600103577767_" gradientUnits="userSpaceOnUse" x1="3086.0059" y1="2722.6343" x2="2814.4509" y2="3637.3477" gradientTransform="matrix(1 0 0 1 -1675.0461 0)">
					<stop  offset="0" style="stop-color:#40447E"/>
					<stop  offset="0.9964" style="stop-color:#3C3B6B"/>
				</linearGradient>
				<path style="fill:url(#SVGID_00000124856204770050734990000001335749600103577767_);" d="M1634.234,2840.737l-17.133,0.575
					l-62.568,2.119l-33.367,1.15l-286.008,9.662l-11.998,0.431l-54.307,1.832l-86.99,2.945l-35.163,1.186
					c-11.026,0.216-21.694,2.55-31.822,6.788c-6.896,2.837-13.272,6.573-19.629,11.062c-42.994,30.458-72.319,96.474-72.319,172.259
					v1.149c0,103.406,54.864,190.074,124.04,193.235l570.339,15.911l36.281,1.006l1.976-20.221l0.99-9.805l33.682-336.113
					l2.367-19.36l2.546-20.975v-0.036l0.898-13.397l0.144-3.484L1634.234,2840.737z"/>
				<g>
					<path style="fill:#F4F7FA;" d="M2725.974,2862.431v348.792l-284.355,11.242l-722.333,28.482
						c-22.627,0.898-44.159-2.406-63.987-9.123c-62.855-21.371-107.409-77.33-107.409-144.782v-60.197
						c0-79.952,62.836-146.973,144.225-160.299c8.944-1.472,18.165-2.298,27.504-2.406l633.092-7.363L2725.974,2862.431z"/>
					
						<linearGradient id="SVGID_00000176034061922567710760000016563411263159699637_" gradientUnits="userSpaceOnUse" x1="1522.7472" y1="3058.8191" x2="2749.3918" y2="3058.8191">
						<stop  offset="0" style="stop-color:#40447E"/>
						<stop  offset="0.9964" style="stop-color:#3C3B6B"/>
					</linearGradient>
					<path style="fill:url(#SVGID_00000176034061922567710760000016563411263159699637_);" d="M2749.392,3210.361
						c0,10.236-5.494,18.785-12.248,19.072l-272.755,11.171l-793.123,32.433c-19.037,0.79-36.475-3.52-53.283-11.997
						c-55.959-28.231-95.235-102.974-95.235-192.157v-1.257c0-115.51,66.466-210.295,148.429-211.804l0.494-0.036l22.82-0.251
						l666.307-6.986l376.347-4.04c0.037,0,0.037,0,0.072,0c6.717,0,12.176,8.422,12.176,18.659c0,10.236-5.494,18.74-12.248,18.812
						l-9.733,0.193l-380.651,5.053l-656.531,8.669l-18.479,0.258c-66.303,0.862-120.269,77.443-120.269,170.72v1.258
						c0,86.273,46.1,155.916,105.543,163.89c4.849,0.647,9.491,0.862,14.484,0.682l752.094-28.554l303.869-11.53l9.703-0.358
						C2743.928,3192.008,2749.392,3200.089,2749.392,3210.361z"/>
				</g>
				<g>
					<path style="fill:#D8DEE8;" d="M1617.114,2845.641l-577.639,13.011c-53.091,1.196-95.422-40.837-95.422-93.863v-35.972
						c0-53.026,42.331-98.655,95.422-101.969l577.639-36.057V2845.641z"/>
					
						<linearGradient id="SVGID_00000009565740911349953290000006104682499822018206_" gradientUnits="userSpaceOnUse" x1="2573.3877" y1="2719.4158" x2="3374.9487" y2="2728.176" gradientTransform="matrix(1 0 0 1 -1675.0461 0)">
						<stop  offset="0" style="stop-color:#FFC444"/>
						<stop  offset="0.9964" style="stop-color:#F36F56"/>
					</linearGradient>
					<path style="fill:url(#SVGID_00000009565740911349953290000006104682499822018206_);" d="M1535.832,2857.188l-489.117,13.679
						c-69.208,1.412-124.31-53.505-124.31-122.388v-0.757c0-68.883,55.102-128.472,124.31-132.931l489.117-38.25
						c8.578-0.542,108.08,5.893,108.08,13.43c0,7.538-92.938,13.249-101.456,13.756l-495.741,35.82
						c-55.915,3.364-100.618,51.413-100.618,107.168v0.76c0,55.755,44.703,100.012,100.618,98.634l489.117-16.054
						c8.518-0.223,108.08,7.443,108.08,14.981S1544.403,2856.996,1535.832,2857.188z"/>
				</g>
				<g>
					<polygon style="fill:#F4F7FA;" points="2725.974,2600.344 2725.974,2832.62 2365.868,2835.96 1695.257,2842.138 
						1640.591,2842.641 1617.012,2842.857 1554.435,2843.431 1547.889,2843.503 1547.889,2589.389 1611.57,2589.496 
						1611.642,2589.496 1643.824,2590.053 1646.877,2590.206 1928.935,2592.886 					"/>
					
						<linearGradient id="SVGID_00000170981151234907331020000014777941466150958005_" gradientUnits="userSpaceOnUse" x1="-4651.2427" y1="1809.7838" x2="-6803.5972" y2="1609.7596" gradientTransform="matrix(1 0 0 1 -1675.0461 0)">
						<stop  offset="0" style="stop-color:#FFC444"/>
						<stop  offset="0.9964" style="stop-color:#F36F56"/>
					</linearGradient>
					<path style="fill:url(#SVGID_00000170981151234907331020000014777941466150958005_);" d="M2737.156,2613.576l-1201.323-9.902
						c-8.118-0.067-14.705-6.202-14.705-13.702c0-7.5,6.588-13.513,14.705-13.43l1201.323,12.276
						c6.751,0.069,12.219,5.662,12.219,12.492C2749.375,2608.139,2743.907,2613.631,2737.156,2613.576z"/>
					
						<linearGradient id="SVGID_00000001652809621973899350000002249362234974640790_" gradientUnits="userSpaceOnUse" x1="-6348.48" y1="2050.9392" x2="-8500.7813" y2="1850.92">
						<stop  offset="0" style="stop-color:#FFC444"/>
						<stop  offset="0.9964" style="stop-color:#F36F56"/>
					</linearGradient>
					<path style="fill:url(#SVGID_00000001652809621973899350000002249362234974640790_);" d="M2749.392,2832.207
						c0,6.789-5.459,12.302-12.176,12.302c-0.035,0-0.035,0-0.072,0l-376.448,4.04l-666.408,6.923l-23.022,0.265l-0.898,0.904
						l-134.546,2.234h-0.144c-6.536,0-12.033-4.759-13.9-10.219c-0.323-1.041-0.538-2.541-0.61-3.654
						c-0.037-0.252-0.037-0.714-0.037-1.001c0-7.507,6.573-13.86,14.691-13.86h0.466l11.71-0.144l69.104-0.593l756.129-6.222
						l354.179-2.95l9.733-0.173C2743.897,2819.988,2749.392,2825.383,2749.392,2832.207z"/>
				</g>
				<path style="opacity:0.5;fill:#FFFFFF;" d="M1490.888,3214.993l-128.978-7.367c-31.171-88.855-28.814-174.542,0-278.785
					l128.978,0.391C1465.032,3035.654,1468.965,3129.779,1490.888,3214.993z"/>
				
					<linearGradient id="SVGID_00000015331716180057137790000016876766123384311716_" gradientUnits="userSpaceOnUse" x1="2835.762" y1="2920.6338" x2="2779.5898" y2="2837.4697" gradientTransform="matrix(1 0 0 1 -1675.0461 0)">
					<stop  offset="0" style="stop-color:#FFC444"/>
					<stop  offset="0.9964" style="stop-color:#F36F56"/>
				</linearGradient>
				<path style="opacity:0.3;fill:url(#SVGID_00000015331716180057137790000016876766123384311716_);" d="M1223.531,2868.867
					l-4.102-160.88l-148.06,162.993c0,0-80.007,43.124-66.265,118.841l91.527-36.414l81.301,28.171
					C1177.932,2981.578,1179.97,2902.054,1223.531,2868.867z"/>
				
					<linearGradient id="SVGID_00000070099912820093130120000004231778724034811066_" gradientUnits="userSpaceOnUse" x1="1148.1443" y1="2968.0444" x2="1277.0096" y2="3395.9739">
					<stop  offset="0.0036" style="stop-color:#E38DDD"/>
					<stop  offset="1" style="stop-color:#9571F6"/>
				</linearGradient>
				<path style="fill:url(#SVGID_00000070099912820093130120000004231778724034811066_);" d="M1054.723,2718.054l164.706-10.067
					c0,0-77.462,58.857-41.496,273.591c0,0-70.414-22.367-101.045-60.661l-71.784,68.904
					C1005.104,2989.821,961.275,2798.9,1054.723,2718.054z"/>
			</g>
		</g>
		<g>
			
				<linearGradient id="SVGID_00000113318979686981537120000011479317373055113110_" gradientUnits="userSpaceOnUse" x1="649.5756" y1="2664.6833" x2="1126.3556" y2="2664.6833">
				<stop  offset="0" style="stop-color:#AA80F9"/>
				<stop  offset="0.9964" style="stop-color:#6165D7"/>
			</linearGradient>
			<path style="fill:url(#SVGID_00000113318979686981537120000011479317373055113110_);" d="M1117.819,2034.67
				c-6.461-2.352-13.381,0.349-15.455,6.032L650.167,3280.147c-2.074,5.683,1.484,12.197,7.945,14.549
				c6.463,2.353,13.381-0.348,15.455-6.032l452.198-1239.445C1127.839,2043.536,1124.281,2037.022,1117.819,2034.67z"/>
			
				<linearGradient id="SVGID_00000155147095461909659570000017108667368979250318_" gradientUnits="userSpaceOnUse" x1="1048.64" y1="2203.3865" x2="1353.9363" y2="2203.3865">
				<stop  offset="0" style="stop-color:#AA80F9"/>
				<stop  offset="0.9964" style="stop-color:#6165D7"/>
			</linearGradient>
			<path style="fill:url(#SVGID_00000155147095461909659570000017108667368979250318_);" d="M1353.936,2204.06
				c0,6.571-5.327,11.897-11.897,11.897h-281.502c-6.571,0-11.897-5.327-11.897-11.897v-1.348c0-6.571,5.327-11.897,11.897-11.897
				h281.502c6.571,0,11.897,5.326,11.897,11.897V2204.06z"/>
			
				<linearGradient id="SVGID_00000173839561763517934590000003059248629371777965_" gradientUnits="userSpaceOnUse" x1="966.0304" y1="2429.6648" x2="1271.3267" y2="2429.6648">
				<stop  offset="0" style="stop-color:#AA80F9"/>
				<stop  offset="0.9964" style="stop-color:#6165D7"/>
			</linearGradient>
			<path style="fill:url(#SVGID_00000173839561763517934590000003059248629371777965_);" d="M1271.327,2430.339
				c0,6.571-5.327,11.897-11.897,11.897H977.928c-6.571,0-11.897-5.327-11.897-11.897v-1.347c0-6.571,5.326-11.897,11.897-11.897
				h281.502c6.571,0,11.897,5.327,11.897,11.897V2430.339z"/>
			
				<linearGradient id="SVGID_00000076584619502353867460000015321287979346416564_" gradientUnits="userSpaceOnUse" x1="883.4208" y1="2659.5349" x2="1188.717" y2="2659.5349">
				<stop  offset="0" style="stop-color:#AA80F9"/>
				<stop  offset="0.9964" style="stop-color:#6165D7"/>
			</linearGradient>
			<path style="fill:url(#SVGID_00000076584619502353867460000015321287979346416564_);" d="M1188.717,2660.209
				c0,6.571-5.327,11.897-11.897,11.897H895.318c-6.571,0-11.897-5.326-11.897-11.897v-1.348c0-6.571,5.327-11.897,11.897-11.897
				h281.502c6.571,0,11.897,5.326,11.897,11.897V2660.209z"/>
			
				<linearGradient id="SVGID_00000006697584526786179100000016210168193455848863_" gradientUnits="userSpaceOnUse" x1="797.2195" y1="2896.5886" x2="1102.5157" y2="2896.5886">
				<stop  offset="0" style="stop-color:#AA80F9"/>
				<stop  offset="0.9964" style="stop-color:#6165D7"/>
			</linearGradient>
			<path style="fill:url(#SVGID_00000006697584526786179100000016210168193455848863_);" d="M1102.516,2897.262
				c0,6.571-5.327,11.897-11.897,11.897H809.117c-6.571,0-11.897-5.327-11.897-11.897v-1.348c0-6.571,5.327-11.897,11.897-11.897
				h281.502c6.571,0,11.897,5.327,11.897,11.897V2897.262z"/>
			
				<linearGradient id="SVGID_00000061438319754646916100000001979712518737708735_" gradientUnits="userSpaceOnUse" x1="714.6099" y1="3122.8669" x2="1019.9062" y2="3122.8669">
				<stop  offset="0" style="stop-color:#AA80F9"/>
				<stop  offset="0.9964" style="stop-color:#6165D7"/>
			</linearGradient>
			<path style="fill:url(#SVGID_00000061438319754646916100000001979712518737708735_);" d="M1019.906,3123.541
				c0,6.571-5.327,11.897-11.897,11.897H726.507c-6.571,0-11.897-5.326-11.897-11.897v-1.348c0-6.571,5.327-11.897,11.897-11.897
				h281.502c6.571,0,11.897,5.327,11.897,11.897V3123.541z"/>
			
				<linearGradient id="SVGID_00000156567232835674937740000001066222203929655470_" gradientUnits="userSpaceOnUse" x1="923.9401" y1="2677.5259" x2="1416.3555" y2="2677.5259">
				<stop  offset="0" style="stop-color:#AA80F9"/>
				<stop  offset="0.9964" style="stop-color:#6165D7"/>
			</linearGradient>
			<path style="fill:url(#SVGID_00000156567232835674937740000001066222203929655470_);" d="M1407.539,2026.088
				c-6.673-2.432-13.82,0.361-15.962,6.237L924.551,3313.919c-2.142,5.877,1.532,12.612,8.206,15.044
				c6.675,2.432,13.82-0.36,15.962-6.237l467.027-1281.593C1417.887,2035.256,1414.213,2028.521,1407.539,2026.088z"/>
		</g>
		<g>
			
				<linearGradient id="SVGID_00000163064150398339507020000013012923873466326415_" gradientUnits="userSpaceOnUse" x1="2333.5671" y1="2933.9246" x2="2749.3022" y2="2933.9246">
				<stop  offset="0" style="stop-color:#40447E"/>
				<stop  offset="0.9964" style="stop-color:#3C3B6B"/>
			</linearGradient>
			<path style="opacity:0.3;fill:url(#SVGID_00000163064150398339507020000013012923873466326415_);" d="M2725.974,2882.222v310.396
				l10.451-0.358c6.754-0.252,12.607,7.83,12.607,18.102c0,10.236-5.315,18.785-12.069,19.072l-272.666,11.171
				c-7.615-5.711-14.932-11.781-22.007-18.138c-6.503-5.854-12.801-11.961-18.834-18.318
				c-55.672-58.689-89.89-137.958-89.89-225.057c0-31.895,4.604-62.711,13.187-91.841c1.975-6.932,4.205-13.756,6.685-20.473
				c2.226-6.106,4.633-12.104,7.255-18.031c1.868-4.31,3.845-8.584,5.892-12.786c2.12-4.31,4.311-8.584,6.646-12.786
				c17.924-32.901,41.305-62.425,68.962-87.315c59.946-66.627,146.074-108.614,242.512-108.614c14.223,0,30.494,0.898,41.269,2.694
				v190.289l10.451-0.072c6.754-0.072,12.607,5.423,12.607,12.248c0,6.789-5.28,12.391-11.997,12.499
				c6.717,0,12.266,8.225,12.266,18.461c0,10.236-6.168,18.641-12.922,18.713L2725.974,2882.222z"/>
			<g>
				
					<linearGradient id="SVGID_00000134252303008942350760000004974514097504704696_" gradientUnits="userSpaceOnUse" x1="2369.5059" y1="2979.0933" x2="3023.8464" y2="2979.0933">
					<stop  offset="0" style="stop-color:#444B8C"/>
					<stop  offset="0.9964" style="stop-color:#26264F"/>
				</linearGradient>
				
					<circle style="fill:url(#SVGID_00000134252303008942350760000004974514097504704696_);" cx="2696.676" cy="2979.093" r="327.17"/>
				<g>
					
						<linearGradient id="SVGID_00000092452700879539111910000000900884315400966809_" gradientUnits="userSpaceOnUse" x1="2770.3826" y1="2786.4216" x2="2635.9641" y2="3247.0042">
						<stop  offset="0" style="stop-color:#AA80F9"/>
						<stop  offset="0.9964" style="stop-color:#6165D7"/>
					</linearGradient>
					
						<circle style="fill:url(#SVGID_00000092452700879539111910000000900884315400966809_);" cx="2721.355" cy="2954.414" r="327.171"/>
					
						<linearGradient id="SVGID_00000044152154212427458330000014751000803825985700_" gradientUnits="userSpaceOnUse" x1="2416.748" y1="2954.4138" x2="3025.9619" y2="2954.4138">
						<stop  offset="0" style="stop-color:#AA80F9"/>
						<stop  offset="0.9964" style="stop-color:#6165D7"/>
					</linearGradient>
					<path style="fill:url(#SVGID_00000044152154212427458330000014751000803825985700_);" d="M3025.962,2954.414
						c0,168.24-136.365,304.607-304.607,304.607c-59.984,0-115.937-17.346-163.082-47.324
						c-85.069-53.995-141.525-149.027-141.525-257.283c0-168.242,136.365-304.608,304.607-304.608c2.817,0,5.604,0.03,8.391,0.119
						C2894.102,2654.373,3025.962,2788.99,3025.962,2954.414z"/>
					<g>
						<polygon style="fill:#FFFFFF;" points="2721.356,2814.44 2447.794,2897.824 2721.356,2981.209 2994.917,2897.824 						"/>
						<path style="fill:#FFFFFF;" d="M2721.355,3010.44l-172.172-52.48v119.886c0,19.677,13.761,36.696,33.01,40.777
							c92.461,19.604,181.368,20.212,266.497,0.641c18.857-4.335,32.152-21.232,32.152-40.581v-116.858L2721.355,3010.44z"/>
						<path style="fill:#FFFFFF;" d="M2511.155,3060.17c-14.957,6.645-28.037,6.784-39.24,0.418
							c-3.276-1.861-4.905-5.688-4.162-9.382l24.348-121.062l24.164,120.146C2517.086,3054.372,2514.959,3058.48,2511.155,3060.17z"
							/>
						<polygon style="fill:#FFFFFF;" points="2721.355,2885.472 2488.559,2910.209 2488.559,2950.592 2495.458,2950.592 
							2496.166,2915.201 						"/>
					</g>
					<path style="opacity:0.6;fill:#FFFFFF;" d="M3025.962,2954.414c0,168.24-136.365,304.607-304.607,304.607
						c-59.984,0-115.937-17.346-163.082-47.324c28.644-77.923,111.458-161.569,197.181-213.992
						c158.693-97.019,38.102-272.317-25.708-347.779C2894.102,2654.373,3025.962,2788.99,3025.962,2954.414z"/>
				</g>
			</g>
		</g>
	</g>
</g>
</svg>
