<?xml version="1.0" encoding="utf-8"?>
<!-- Generator: Adobe Illustrator 27.5.0, SVG Export Plug-In . SVG Version: 6.00 Build 0)  -->
<svg version="1.1" xmlns="http://www.w3.org/2000/svg" xmlns:xlink="http://www.w3.org/1999/xlink" x="0px" y="0px"
	 viewBox="0 0 3710 3710" style="enable-background:new 0 0 3710 3710;" xml:space="preserve">
<g id="Background">
	<g>
		<g>
			<rect style="fill:#FFFFFF;" width="3710" height="3710"/>
		</g>
	</g>
</g>
<g id="Illustration">
	<g>
		<path style="fill:#F4F7FA;" d="M3186.518,1542.295c-74.921-490.395-382.098-1092.88-988.96-1155.931
			c0,0-460.758-56.044-914.964,28.896c-269.572,50.412-505.947,200.478-655.515,416.161
			c-149.57,215.683-199.531,478.678-138.897,729.412c39.381,162.854,65.993,331.401,58.69,498.743
			c-12.711,291.243-5.398,563.097,277.247,736.786c252.369,155.085,569.979,291.865,872.984,315.822
			c205.92,16.281,436.846-10.065,635.314-63.677C3343.852,2775.288,3261.439,2032.69,3186.518,1542.295z"/>
		<g>
			<defs>
				<rect id="SVGID_1_" x="1741.731" y="342.738" width="1319.967" height="1197.347"/>
			</defs>
			<clipPath id="SVGID_00000128481453580486696990000005152896083334088621_">
				<use xlink:href="#SVGID_1_"  style="overflow:visible;"/>
			</clipPath>
			<g style="clip-path:url(#SVGID_00000128481453580486696990000005152896083334088621_);">
				<g>
					<defs>
						<path id="SVGID_00000145774349325750421620000009330869070280346273_" d="M2046.861,1905.661l197.01,91.778
							c0,0,84.166-83.785,69.112-177.599c-30.715-191.408,139.071-204.95,209.335-221.26
							c105.965-24.597,188.616-92.486,92.17-183.735c-96.447-91.249,100.723-214.747,277.58-229.808
							c173.067-14.738,246.734-330.888-130.776-333.384c-225.448-1.491-288.123,209.078-345.052,307.889
							c-56.93,98.811-214.062,35.98-220.25,186.205c-5.286,128.319,43.285,246.307-56.056,289.941
							C2040.592,1679.323,1995.287,1759.028,2046.861,1905.661z"/>
					</defs>
					<clipPath id="SVGID_00000031184276545139581010000003694073610629101707_">
						<use xlink:href="#SVGID_00000145774349325750421620000009330869070280346273_"  style="overflow:visible;"/>
					</clipPath>
					
						<linearGradient id="SVGID_00000083783135100066175580000018171419487933670305_" gradientUnits="userSpaceOnUse" x1="6016.8823" y1="-219.3212" x2="5584.2251" y2="1010.3361" gradientTransform="matrix(0.9065 0.4223 -0.4223 0.9065 -2624.8379 -1428.0935)">
						<stop  offset="0" style="stop-color:#AA80F9"/>
						<stop  offset="0.9964" style="stop-color:#6165D7"/>
					</linearGradient>
					
						<path style="clip-path:url(#SVGID_00000031184276545139581010000003694073610629101707_);fill:url(#SVGID_00000083783135100066175580000018171419487933670305_);" d="
						M2047.646,1710.201c-27.93,46.209-31.099,109.268-0.785,195.46l0.785,0.366V1710.201z"/>
					
						<linearGradient id="SVGID_00000136409019452853872350000002305836324967006109_" gradientUnits="userSpaceOnUse" x1="5997.7954" y1="-226.0413" x2="5565.1357" y2="1003.624" gradientTransform="matrix(0.9065 0.4223 -0.4223 0.9065 -2624.8379 -1428.0935)">
						<stop  offset="0" style="stop-color:#AA80F9"/>
						<stop  offset="0.9964" style="stop-color:#6165D7"/>
					</linearGradient>
					
						<path style="clip-path:url(#SVGID_00000031184276545139581010000003694073610629101707_);fill:url(#SVGID_00000136409019452853872350000002305836324967006109_);" d="
						M2761.292,851.654c-225.448-1.491-288.122,209.078-345.052,307.889c-56.93,98.811-214.062,35.98-220.25,186.205
						c-2.768,67.2,9.225,131.559,7.018,183.897h114.566c1.772-9.084,5.21-17.348,9.19-25.836
						c6.939-14.801,28.157-18.454,41.227-10.81c1.336,0.781,2.539,1.657,3.682,2.575c8.314-3.399,17.469-5.47,26.317-6.564
						c23.393-2.892,47.657-2.728,71.156-2.483c35.065,0.365,70.058,1.744,105.105,2.651c16.186,0.419,32.512,0.692,48.651-0.826
						c11.803-1.11,22.906-2.27,34.283-1.766c-0.34-20.787-8.885-44.032-27.758-69.621
						c-78.809-106.852,85.784-216.867,262.641-231.927C3065.135,1170.3,3138.802,854.15,2761.292,851.654z"/>
					<path style="opacity:0.5;clip-path:url(#SVGID_00000031184276545139581010000003694073610629101707_);fill:#BEB8F2;" d="
						M2651.801,1104.466c-108.222,70.583-209.175,181.348-300.055,329.218c-19.544,31.802-37.777,63.988-54.727,95.96h5.195
						c16.596-31.207,34.417-62.605,53.49-93.636c142.122-231.221,384.597-488.699,732.658-402.258l1.107-4.453
						C2934.528,990.817,2787.276,1016.109,2651.801,1104.466z"/>
					<path style="opacity:0.5;clip-path:url(#SVGID_00000031184276545139581010000003694073610629101707_);fill:#BEB8F2;" d="
						M2596.783,1143.834l4.368,1.408c46.891-145.334,190.126-316.083,191.567-317.791l-3.505-2.961
						C2787.766,826.206,2643.949,997.648,2596.783,1143.834z"/>
					<path style="opacity:0.5;clip-path:url(#SVGID_00000031184276545139581010000003694073610629101707_);fill:#BEB8F2;" d="
						M2688.664,1087.435c180.644-22.007,291.955,80.786,293.056,81.826l3.149-3.335c-1.118-1.058-113.901-105.322-296.76-83.046
						L2688.664,1087.435z"/>
					<path style="opacity:0.5;clip-path:url(#SVGID_00000031184276545139581010000003694073610629101707_);fill:#BEB8F2;" d="
						M2358.667,1529.644c145.031-71.561,332.611-22.143,334.827-21.357l1.813-4.21c-2.136-0.994-198.647-52.008-346.282,25.567
						H2358.667z"/>
					<path style="opacity:0.5;clip-path:url(#SVGID_00000031184276545139581010000003694073610629101707_);fill:#BEB8F2;" d="
						M2301.212,1521.897l4.469,1.049c32.466-138.102-63.748-288.356-64.724-289.858l-3.847,2.499
						C2238.076,1237.075,2333.229,1385.724,2301.212,1521.897z"/>
				</g>
				
					<linearGradient id="SVGID_00000027595565208451933320000011289473181333258116_" gradientUnits="userSpaceOnUse" x1="2280.4607" y1="471.5482" x2="2063.8254" y2="2434.4648">
					<stop  offset="0.0036" style="stop-color:#6165D7"/>
					<stop  offset="1" style="stop-color:#AA80F9"/>
				</linearGradient>
				<path style="fill:url(#SVGID_00000027595565208451933320000011289473181333258116_);" d="M1805.141,1869.027
					c-78.563,33.663-104.983,114.238-115.467,175.028c5.793,5.272,7.724,9.932,12.322,16.656
					c41.503,60.686,72.33,76.512,122.82,128.977c10.867,11.292,53.187,33.678,71.123,41.634l33.703,14.258
					c0,0,171.79-99.238,134.89-202.491c-36.9-103.254,136.468-127.926,210.945-198.662
					c202.076-191.928-58.435-464.134,181.527-731.524c63.823-71.118,209.317-185.402,200.295-295.863
					c-10.278-125.847-116.976-107.395-112.381-200.773c7.182-145.947-76.943-276.257-221.272-249.181
					c-142.446,26.722-216.085,268.658-141.423,583.455c27.981,231.905-0.748,267.968-85.981,342.062
					c-59.701,51.899-252.13,153.911-227.49,285.888C1893.391,1710.466,1894.953,1830.543,1805.141,1869.027z"/>
				<g>
					<defs>
						<path id="SVGID_00000036245275906185918640000009735978870747620998_" d="M1681.7,2122.272l239.026,124.511
							c0,0,180.707-100.441,143.807-203.695c-36.9-103.254,150.263-107.084,224.741-177.821
							c202.076-191.927-72.232-484.976,167.73-752.365c63.823-71.117,209.316-185.402,200.295-295.864
							c-10.278-125.847-116.976-107.395-112.381-200.773c7.182-145.946-76.944-276.256-221.272-249.181
							c-142.446,26.722-216.085,268.659-141.423,583.455c27.981,231.905-0.748,267.968-85.98,342.062
							c-59.701,51.899-252.13,153.911-227.49,285.888c24.64,131.977,26.202,252.054-63.61,290.538
							C1668.482,1927.584,1681.7,2122.272,1681.7,2122.272z"/>
					</defs>
					<clipPath id="SVGID_00000097469239234527135450000012296035940117821601_">
						<use xlink:href="#SVGID_00000036245275906185918640000009735978870747620998_"  style="overflow:visible;"/>
					</clipPath>
					<path style="opacity:0.5;clip-path:url(#SVGID_00000097469239234527135450000012296035940117821601_);fill:#FCFDFE;" d="
						M2024.802,1790.003l4.899,2.131c62.564-143.907-67.827-415.648-69.151-418.377l-4.809,2.334
						C1957.055,1378.797,2086.39,1648.345,2024.802,1790.003z"/>
					<path style="opacity:0.5;clip-path:url(#SVGID_00000097469239234527135450000012296035940117821601_);fill:#FCFDFE;" d="
						M1982.244,1868.586l4.447,2.962c56.81-85.235,179.824-171.121,346.378-241.831c8.375-3.556,8.375-3.556,8.949-4.392
						l-4.41-3.018l2.205,1.509l-1.473-2.216c-0.531,0.301-3.692,1.644-7.359,3.198
						C2163.477,1695.912,2039.626,1782.489,1982.244,1868.586z"/>
					<path style="opacity:0.5;clip-path:url(#SVGID_00000097469239234527135450000012296035940117821601_);fill:#FCFDFE;" d="
						M1827.27,2118.433l5.107,1.567c33.09-107.86-60.667-246.468-61.616-247.854l-4.409,3.019
						C1767.288,1876.531,1859.601,2013.042,1827.27,2118.433z"/>
					<path style="opacity:0.5;clip-path:url(#SVGID_00000097469239234527135450000012296035940117821601_);fill:#FCFDFE;" d="
						M1800.471,2172.288c74.292-52.512,166.091-85.411,280.643-100.576l-0.702-5.299c-115.431,15.283-208.009,48.49-283.025,101.513
						L1800.471,2172.288z"/>
					<path style="opacity:0.5;clip-path:url(#SVGID_00000097469239234527135450000012296035940117821601_);fill:#FCFDFE;" d="
						M2656.016,739.542c-3.013,2.129-281.167,200.328-374,406.011c13.11-51.781,24.506-104.014,34.108-155.406
						c7.065-37.806,13.147-73.981,18.314-113.652h0.033c-0.002,0-0.009,0.472-0.012,0.419
						c9.604-69.851,15.926-138.842,18.886-207.02l0.081,0.163c30.102-124.106,90.494-247.438,110.341-287.99
						c4.804-9.816,6.482-13.24,6.859-14.549l-5.135-1.456c-0.301,0.995-3.047,6.614-6.524,13.72
						c-18.659,38.127-73.045,149.264-104.693,265.703c0.555-17.58,0.905-35.085,1.011-52.499
						c0.549-90.706-4.984-178.128-16.451-259.837c-1.995-14.241-4.834-28.691-7.579-42.668c-3.656-18.619-7.438-37.873-9.254-56.777
						l-5.318,0.514c1.84,19.163,5.647,38.546,9.328,57.293c2.731,13.906,5.554,28.286,7.531,42.381
						c11.43,81.452,16.949,168.615,16.4,259.065c-0.523,86.423-6.649,175.01-18.212,264.626
						c-23.858-116.425-184.858-257.963-192.09-264.269l-3.51,4.029c1.853,1.617,185.178,162.744,192.957,279.991
						c-5.144,37.333-11.195,74.824-18.216,112.404c-31.275,167.38-81.408,337.566-149.006,505.824
						c-79.798,198.625-185.317,397.851-313.622,592.142c-17.33,26.246-35.33,52.78-53.502,78.87l4.385,3.054
						c18.194-26.126,36.22-52.697,53.576-78.978c128.502-194.593,234.188-394.137,314.122-593.098
						c40.548-100.927,74.773-202.545,102.478-303.847l0.127,0.039c66.376-219.519,386.443-447.563,389.669-449.838L2656.016,739.542
						z"/>
				</g>
				
					<linearGradient id="SVGID_00000168118089942892143080000007978011702012818581_" gradientUnits="userSpaceOnUse" x1="1703.7491" y1="238.4186" x2="2247.9771" y2="2000.5515">
					<stop  offset="0.0036" style="stop-color:#E38DDD"/>
					<stop  offset="1" style="stop-color:#9571F6"/>
				</linearGradient>
				<path style="fill:url(#SVGID_00000168118089942892143080000007978011702012818581_);" d="M1963.359,1691.99
					c0.56,0.705,1.122,1.409,1.688,2.112c33.443,41.599,77.34,81.154,135.345,114.815c11.77,5.764,23.539,11.528,35.308,17.292
					c24.296-22.296,43.412-47.851,13.892-77.25c-45.844-45.655,4.4-142.419,37.614-168.362
					c41.109-32.11,135.295-108.842,65.534-180.538c-58.076-59.687-107.751-86.332-64.294-179.034
					c43.457-92.702,24.462-175.29-60.1-213.788c-88.988-40.512-98.047-192.782-189.02-192.317
					c-158.516,0.811-153.905,258.988-35.538,396.613c118.367,137.625,3.89,145.442-39.709,216.991
					c-59.521,97.68,88.066,149.217,102.777,208.043C1971.84,1656.494,1969.389,1675.261,1963.359,1691.99z"/>
				<g>
					<defs>
						<path id="SVGID_00000106120973488468334020000009336573806870880899_" d="M1929.622,1745.317l188.094,99.085
							c24.983-20.854,64.85-62.604,31.876-95.442c-45.843-45.656,4.4-142.419,37.614-168.362
							c41.109-32.109,135.295-108.841,65.533-180.537c-58.076-59.687-107.751-86.332-64.294-179.034
							c43.457-92.702,24.462-175.291-60.1-213.788c-88.988-40.512-98.047-192.782-189.02-192.317
							c-158.516,0.81-153.904,258.988-35.538,396.612c118.367,137.624,3.89,145.442-39.709,216.991
							c-59.521,97.681,88.066,149.217,102.777,208.043C1978.39,1682.684,1950.203,1722.644,1929.622,1745.317z"/>
					</defs>
					<clipPath id="SVGID_00000110461574282772423550000010865438491616570508_">
						<use xlink:href="#SVGID_00000106120973488468334020000009336573806870880899_"  style="overflow:visible;"/>
					</clipPath>
					<path style="opacity:0.5;clip-path:url(#SVGID_00000110461574282772423550000010865438491616570508_);fill:#FCFDFE;" d="
						M2033.773,1762.385l4.414,1.321c96.46-322.696,35.834-690.625-158.219-960.206l-3.738,2.692
						C2069.465,1074.637,2129.832,1441.03,2033.773,1762.385z"/>
					<path style="opacity:0.5;clip-path:url(#SVGID_00000110461574282772423550000010865438491616570508_);fill:#FCFDFE;" d="
						M2071.293,1581.945l4.066,2.166c62.205-116.835,210.714-154.654,212.208-155.022l-1.104-4.473
						C2284.951,1424.988,2134.479,1463.269,2071.293,1581.945z"/>
					<path style="opacity:0.5;clip-path:url(#SVGID_00000110461574282772423550000010865438491616570508_);fill:#FCFDFE;" d="
						M2049.899,1702.539l4.607-0.025c-0.74-134.191-208.105-263.533-210.2-264.823l-2.417,3.922
						C1843.961,1442.889,2049.173,1570.899,2049.899,1702.539z"/>
					<path style="opacity:0.5;clip-path:url(#SVGID_00000110461574282772423550000010865438491616570508_);fill:#FCFDFE;" d="
						M2061.618,1251.968l4.593,0.37c8.502-106.115,135.392-208.809,136.673-209.834l-2.876-3.598
						C2198.71,1039.943,2070.276,1143.892,2061.618,1251.968z"/>
					<path style="opacity:0.5;clip-path:url(#SVGID_00000110461574282772423550000010865438491616570508_);fill:#FCFDFE;" d="
						M2004.956,1045.708l3.975-2.331c-61.368-104.631-219.141-148.88-220.731-149.313l-1.218,4.444
						C1788.552,898.933,1944.545,942.706,2004.956,1045.708z"/>
				</g>
			</g>
		</g>
		<g>
			<path style="fill:#B7C0CE;" d="M2951.275,1097.617L644.672,946.019c-24.682-1.622-44.747,16.19-44.747,39.79v47.508v25.33
				V2707.09c0,23.6,20.065,41.759,44.747,40.564l2306.603-111.667c17.944-0.869,32.455-17.821,32.455-37.867V1197.916V1176.4
				v-40.354C2983.73,1115.999,2969.219,1098.796,2951.275,1097.617z"/>
			<g>
				<path style="fill:#FFFFFF;" d="M628.566,1033.318v1673.772c0,23.6,20.065,41.76,44.747,40.565l2306.603-111.667
					c17.943-0.869,32.455-17.821,32.455-37.867V1176.4L628.566,1033.318z"/>
				<path style="fill:#D8DEE8;" d="M2979.916,1097.617L673.313,946.02c-24.682-1.622-44.747,16.19-44.747,39.79v72.838
					l2383.805,139.268v-61.87C3012.371,1116,2997.859,1098.796,2979.916,1097.617z"/>
				<path style="fill:#FFFFFF;" d="M732.012,1004.925c0,10.424-8.821,18.335-19.716,17.67c-10.909-0.666-19.765-9.677-19.765-20.127
					c0-10.45,8.855-18.359,19.765-17.667C723.191,985.492,732.012,994.502,732.012,1004.925z"/>
			</g>
			<g>
				<path style="fill:#D8DEE8;" d="M782.407,1469.631c-23.288,12.855-45.766,41.923-40.654,74.681
					c5.185,33.226,36.363,54.906,60.902,62.276c34.436,10.342,45.764-10.535,82.697-6.617
					c55.725,5.911,98.939,60.881,116.946,101.127c17.677,39.508,3.894,48.825,15.315,94.161
					c20.038,79.549,81.989,128.57,140.77,175.083c48.775,38.595,122.845,85.123,136.12,71.361c4.75-4.924,0.473-16.226-2.109-23.045
					c-10.246-27.07-33.663-33.338-65.647-58.782c-22.791-18.13-51.608-41.055-46.934-59.188
					c4.602-17.857,41.07-28.677,68.173-20.649c27.094,8.025,41.628,33.944,48.625,46.423c5.979,10.663,4.988,24.464,10.529,25.164
					c3.823,0.483,8.073-5.106,9.989-9.918c4.932-12.381-3.691-24.405-6.833-34.034c-7.24-22.182,9.909-45.925,26.948-69.516
					c28.454-39.395,45.09-39.492,88.907-85.004c29.232-30.363,43.837-45.956,45.435-68.336c2.74-38.37-30.239-67.746-35.775-72.677
					c-26.731-23.811-72.187-40.796-91.584-24.542c-17.425,14.602,0.919,43.651-19.571,65.013
					c-14.344,14.955-39.427,17.542-59.017,11.307c-27.716-8.823-43.673-35.055-45.275-58.507
					c-0.316-4.626-1.777-26.006,12.761-40.359c4.141-4.089,14.211-12.177,48.016-12.663c47.361-0.68,57.214,14.834,85.391,9.377
					c23.446-4.54,51.669-22.078,51.328-40.133c-0.399-21.144-39.646-24.493-84.81-73.667
					c-17.617-19.181-31.963-35.241-30.822-55.545c1.605-28.578,32.986-49.942,39.207-54.176
					c24.363-16.585,45.948-29.972,45.948-29.972c6.071-3.765,14.881-9.149,13.869-14.637c-0.666-3.612-5.402-6.269-13.869-8.965
					c-26.778-8.528-47.344-4.981-47.344-4.981c-31.977,5.515-42.18,20.448-81.456,39.616c-15.897,7.758-42.757,20.866-79.484,27.494
					c-42.027,7.584-56.506-0.596-77.436,13.75c-20.223,13.861-13.842,26.351-34.669,48.22
					c-21.848,22.941-48.594,29.937-90.289,40.842c-16.009,4.187-48.41,11.629-92.837,14.016
					C820.307,1467.047,806.829,1456.15,782.407,1469.631z"/>
				<path style="fill:#D8DEE8;" d="M1468.841,1306.402c-43.033,9.443-80.57,17.68-88.401,43.234
					c-4.073,13.291-0.286,31.886,11.107,42.107c22.627,20.299,56.705-9.057,81.413,8.719c13.194,9.493,8.2,21.272,23.295,87.743
					c10.06,44.302,18.315,65.634,34.126,85.018c8.953,10.978,21.501,26.362,33.97,24.259c18.445-3.11,11.463-40.289,40.561-65.998
					c10.196-9.009,12.056-5.314,60.429-26.779c28.141-12.488,42.234-18.827,45.333-24.347c15.826-28.2-26.247-64.641-9.31-98.198
					c3.191-6.323,3.631-2.924,25.244-28.829c24.792-29.717,24.484-34.531,23.836-36.918c-2.751-10.133-21.186-11.715-69.07-19.468
					c-79.895-12.937-86.393-17.871-110.246-13.351c-15.854,3.004-20.08,6.523-54.378,13.961
					C1489.903,1303.376,1486.9,1302.439,1468.841,1306.402z"/>
				<path style="fill:#D8DEE8;" d="M1359.569,2041.453c-24,17.493-28.777,47.776-30.714,60.051
					c-4.792,30.378,4.186,50.171,20.955,100.05c20.343,60.51,30.495,90.704,32.019,107.872c2.365,26.643-2.563,31.39-22.26,136.795
					c-14.669,78.5-16.238,98.867-2.787,112.773c19.759,20.427,62.152,16.833,63.843,11.42c0.823-2.635-8.314-4.626-15.217-13.274
					c-15.385-19.272-4.304-52.276-1.385-60.969c11.511-34.282,33.479-49.359,68.936-83.798
					c41.723-40.525,68.824-66.847,88.679-105.463c9.857-19.17,30.844-61.35,24.372-115.617
					c-1.304-10.937-6.762-47.861-33.872-84.666c-35.278-47.894-83.035-62.781-97.043-66.924
					C1427.79,2031.63,1388.845,2020.115,1359.569,2041.453z"/>
				<path style="fill:#D8DEE8;" d="M1762.331,1851.721c-15.099,28.947-31.819,61-38.378,90.6
					c-5.874,26.508-11.486,86.667,18.552,109.862c27.116,20.939,58.32-7.632,95.984,15.713
					c19.169,11.882,27.608,29.538,37.784,50.83c21.847,45.709,11.431,71.145,20.763,129.927
					c4.384,27.614,18.3,115.274,52.936,120.663c28.811,4.483,60.096-49.885,65.313-58.95c13.848-24.065,19.178-48.92,29.263-97.595
					c13.584-65.568,8.534-74.681,22.819-93.165c18.359-23.755,40.558-26.602,45.421-49.327c3.572-16.693-4.949-31.689-10.069-40.936
					c-18.933-34.196-45.378-30.434-63.252-63.558c-10.287-19.064-13.072-41.704-8.9-43.872c3.729-1.938,14.053,11.938,19.057,18.665
					c15.359,20.644,13.481,28.096,22.803,38.501c18.826,21.012,50.549,17.482,52.927,17.182
					c14.519-1.834,40.617-10.346,43.809-27.683c2.457-13.347-9.438-27.649-23.749-44.856c-11.56-13.9-20.213-19.89-18.805-22.523
					c1.427-2.668,11.709,0.87,38.809,10.757c29.35,10.708,43.981,16.046,46.046,17.292c9.845,5.941,18.225,13.949,45.75,61.662
					c27.825,48.232,37.932,72.432,44.233,70.402c3.134-1.009,2.592-7.628,4.898-30.012c3.448-33.474,5.338-50.453,13.451-62.565
					c6.84-10.211,21.458-24.026,36.556-22.048c9.049,1.186,19.906,15.977,41.202,45.444c20.949,28.986,28.004,38.826,42.163,46.466
					c7.424,4.006,20.712,11.176,31.158,5.032c11.586-6.814,15.558-27.59,10.753-42.536c-5.817-18.094-21.993-19.844-21.523-30.922
					c0.669-15.799,34.112-26.104,37.026-26.974c21.516-6.426,27.014,0.928,38.016-6.303c16.315-10.724,23.028-39.282,18.93-61.42
					c-4.221-22.806-18.531-31.324-14.193-41.141c3.648-8.254,15.097-5.226,37.783-11.104c16.815-4.356,41.598-10.777,55.124-31.205
					c8.045-12.151,9.465-25.262,11.672-45.652c0.367-3.392,1.963-19.072,0-40.723c-2.718-29.986-8.706-32.199-5.834-40.857
					c6.298-18.989,36.601-12.991,93.901-29.446c32.653-9.377,56.173-20.917,58.471-16.144c2.883,5.986-35.204,22.016-37.777,53.283
					c-1.95,23.695,17.184,48.049,25.208,45.941c6.626-1.741,1.842-20.518,13.711-47.576c4.367-9.956,10.989-25.053,25.065-34.614
					c16.866-11.455,26.802-2.97,41.948-15.218c12.102-9.787,9.054-17.886,19.187-28.263c22.93-23.482,61.466-5.5,63.94-14.348
					c2.286-8.175-27.407-34.983-66.195-42.023c-34.604-6.281-39.943,9.749-79.382,8.714c-22.462-0.589-49.73-11.192-104.595-32.525
					c-31.107-12.095-47.35-20.205-75.697-22.992c-19.777-1.944-20.371,1.161-41.105-1.467c-23.568-2.987-52.837-6.696-75.799-28.423
					c-18.045-17.075-12.532-26.656-27.443-37.107c-24.113-16.901-57.208-4.968-85.4,5.65
					c-30.022,11.307-51.383,25.651-87.674,50.021c-42.348,28.437-56.568,42.821-80.094,39.12
					c-17.608-2.77-21.214-12.633-41.011-13.182c-16.042-0.445-21.078,5.814-53.794,19.323
					c-31.727,13.101-47.926,19.611-61.797,16.584c-21.519-4.696-22.349-20.327-45.742-30.678c-25-11.063-48.903-4.237-78.175,4.122
					c-36.251,10.353-72.029,20.57-89.454,52.285c-18.485,33.645-1.342,64.161-22.209,78.892
					c-17.341,12.243-35.127-4.559-51.205,8.283c-19.35,15.456-13.588,55.693-10.548,76.918
					c5.986,41.797,20.849,52.265,15.816,81.402C1778.557,1824.23,1774.605,1828.19,1762.331,1851.721z"/>
				<path style="fill:#D8DEE8;" d="M2112.789,2198.47c-8.863-0.831-23.712,36.561-20.152,71.766
					c0.212,2.094,3.138,29.391,11.342,30.189c7.619,0.741,15.543-21.791,16.352-24.137c1.329-3.857,5.321-16.439,3.768-37.052
					C2123.665,2233.472,2121.085,2199.247,2112.789,2198.47z"/>
				<path style="fill:#D8DEE8;" d="M2426.494,2109.745c-0.635,1.613,1.813,4.332,8.627,10.08
					c17.979,15.168,26.95,22.737,41.731,28.107c12.75,4.633,44.404,12.943,51.184,0.681c4.345-7.858-1.896-23.467-11.869-30.685
					c-10.637-7.699-18.641-0.879-44.095-2.152C2445.635,2114.456,2428.045,2105.803,2426.494,2109.745z"/>
				<path style="fill:#D8DEE8;" d="M2516.167,2042.149c-5.248,0.919-3.909,12.029-14.271,36.06
					c-4.838,11.221-7.464,14.214-5.955,18.048c3.328,8.453,23.347,12.373,33.281,2.298c9.266-9.398,5.041-26.198,3.556-32.102
					C2529.969,2055.283,2522.309,2041.073,2516.167,2042.149z"/>
				<path style="fill:#D8DEE8;" d="M2622.272,2134.75c3.918,6.133,10.569,13.702,26.857,21.333
					c5.677,2.659,47.523,22.262,58.027,6.875c4.275-6.263,2.18-16.573-1.156-22.789c-5.165-9.624-14.604-11.859-30.118-16.163
					c-46.332-12.854-56.845-19.188-60.634-13.409C2610.99,2117.093,2620.131,2131.399,2622.272,2134.75z"/>
				<path style="fill:#D8DEE8;" d="M2543.437,1997.168c-5.588,1.869-5.23,29.406,4.732,51.254
					c5.178,11.356,14.601,24.791,18.895,22.947c4.642-1.994,2.284-21.413-1.179-34.548
					C2560.736,2017.293,2548.845,1995.359,2543.437,1997.168z"/>
				<path style="fill:#D8DEE8;" d="M2588.259,1868.069c0.089-6.427,14.812-4.751,34.013-17.561
					c13.322-8.888,32.816-27.428,43.154-52.953c2.094-5.171,4.25-11.708,5.811-11.353c2.354,0.535,2.644,16.593,0,30.483
					c-4.886,25.673-20.686,48.591-40.78,59.379c-7.891,4.236-13.788,5.176-18.723,4.957
					C2600.756,1880.534,2588.177,1874.026,2588.259,1868.069z"/>
				<path style="fill:#D8DEE8;" d="M2548.168,2243.202c-25.887,24.638-40.046,20.484-43.892,34.243
					c-4.359,15.594,13.444,22.257,16.641,53.576c1.986,19.463-3.488,30.582,1.187,33.35c7.083,4.194,18.769-21.863,46.139-31.971
					c2.121-0.783,30.722-10.872,54.029,3.741c13.516,8.474,11.815,16.839,33.846,37.283c14.077,13.063,21.385,19.647,30.204,18.177
					c14.529-2.42,22.729-24.965,27.764-38.808c4.167-11.455,13.709-37.69,6.924-68.525c-2.939-13.358-5.106-10.157-45.128-71.384
					c-11.088-16.963-15.542-24.276-25.588-28.832c-20.534-9.313-43.083,2.568-46.767,4.509c-8.087,4.26-15.181,11.505-29.391,26.016
					C2557.322,2231.749,2558.369,2233.494,2548.168,2243.202z"/>
			</g>
		</g>
		<g>
			<g>
				<g>
					
						<linearGradient id="SVGID_00000107586238397466658800000003998797002088741304_" gradientUnits="userSpaceOnUse" x1="1515.8009" y1="1374.2701" x2="1636.0334" y2="1374.2701">
						<stop  offset="0" style="stop-color:#311944"/>
						<stop  offset="1" style="stop-color:#A03976"/>
					</linearGradient>
					<path style="fill:url(#SVGID_00000107586238397466658800000003998797002088741304_);" d="M1515.801,1259.494l105.627,225.023
						l14.606,4.53c0,0-9.136-84.537-11.193-90.379c-2.056-5.839-41.611-126.551-41.611-126.551L1515.801,1259.494z"/>
					<g>
						
							<linearGradient id="SVGID_00000001635543219487743360000000920474382495065525_" gradientUnits="userSpaceOnUse" x1="1694.1121" y1="1104.2656" x2="1329.9696" y2="719.1959">
							<stop  offset="0" style="stop-color:#311944"/>
							<stop  offset="1" style="stop-color:#A03976"/>
						</linearGradient>
						<path style="fill:url(#SVGID_00000001635543219487743360000000920474382495065525_);" d="M1987.618,748.506l-799.248-62.642
							c-15.266-0.591-27.877,13.116-27.877,30.23v522.048c0,17.597,13.303,32.595,28.969,32.585l734.149-46.259
							c17.28-0.113,105.645,31.994,105.645,14.193V751.292C2029.256,732.96,2005.751,749.282,1987.618,748.506z"/>
					</g>
					<g>
						
							<linearGradient id="SVGID_00000113311597888752389170000012866884983505724083_" gradientUnits="userSpaceOnUse" x1="1172.8694" y1="1087.4457" x2="2044.9156" y2="1087.4457">
							<stop  offset="0" style="stop-color:#FF9085"/>
							<stop  offset="1" style="stop-color:#FB6FBB"/>
						</linearGradient>
						<path style="fill:url(#SVGID_00000113311597888752389170000012866884983505724083_);" d="M2012.14,717.224l-811.294-31.36
							c-15.32-0.592-27.977,13.139-27.977,30.284v522.975c0,17.628,13.351,32.655,29.072,32.647l337.23-0.356l96.862,217.632
							l78.724-218.521l298.747,0.881c17.685-0.008,31.411-13.804,31.411-31.641V751.423
							C2044.916,733.054,2030.388,717.929,2012.14,717.224z"/>
					</g>
					
						<linearGradient id="SVGID_00000016758464533483096870000009488345711672117171_" gradientUnits="userSpaceOnUse" x1="1172.8694" y1="982.1191" x2="2044.9156" y2="982.1191">
						<stop  offset="0" style="stop-color:#FF9085"/>
						<stop  offset="1" style="stop-color:#FB6FBB"/>
					</linearGradient>
					<path style="opacity:0.3;fill:url(#SVGID_00000016758464533483096870000009488345711672117171_);" d="M2036.123,728.565
						l-853.458-35.758c-5.974,5.546-9.795,13.921-9.795,23.341v77.128c14.629-6.691,27.056-7.841,37.19-6.749
						c28.169,3.037,34.928,22.833,89.607,52.443c51.897,28.104,57.386,16.733,80.541,36.917
						c45.034,39.255,25.27,82.442,64.988,124.922c41.827,44.736,78.305,13.053,139.573,57.143
						c65.864,47.398,44.652,98.087,99.5,132.274c78.218,48.754,159.796-29.097,229.056,19.868
						c21.189,14.98,34.797,37.306,43.595,61.336l56.584-0.025c17.685-0.008,31.411-13.804,31.411-31.641V751.423
						C2044.916,742.656,2041.576,734.644,2036.123,728.565z"/>
				</g>
			</g>
			<g>
				<path style="fill:#FFFFFF;" d="M1394.894,1087.202l-33.451,0.334v-78.095l-64.033-0.459v79.194l-35.029,0.35V903.641
					l35.029,1.043V976.6l64.033,0.908v-70.918l33.451,0.996V1087.202z"/>
				<path style="fill:#FFFFFF;" d="M1531.755,1085.833l-86.764,0.867V909.078l86.764,2.583v30.26l-54.424-1.244v38.717l50.683,0.716
					v30.286l-50.683-0.366v45.47l54.424-0.165V1085.833z"/>
				<path style="fill:#FFFFFF;" d="M1572.538,1085.426v-172.55l30.526,0.909v141.335l57.216-0.174v29.604L1572.538,1085.426z"/>
				<path style="fill:#FFFFFF;" d="M1693.942,1084.212V916.49l28.847,0.859v137.407l54.1-0.164v28.792L1693.942,1084.212z"/>
				<path style="fill:#FFFFFF;" d="M1923.118,1002.4c0,26.254-5.034,46.442-15.14,60.616
					c-10.157,14.245-24.807,21.496-44.047,21.698c-19.423,0.205-34.465-6.854-45.025-21.232
					c-10.615-14.453-15.943-35.305-15.943-62.501c0-27.192,5.342-47.845,15.988-61.901c10.589-13.984,25.672-20.649,45.153-20.057
					c19.295,0.586,33.928,8.091,44,22.463C1918.127,955.786,1923.118,976.074,1923.118,1002.4z M1831.659,1001.49
					c0,18.128,2.716,31.783,8.138,40.949c5.408,9.144,13.461,13.688,24.134,13.65c21.232-0.074,31.766-18.062,31.766-53.963
					c0-35.973-10.475-54.206-31.593-54.699c-10.672-0.25-18.756,4.149-24.218,13.221
					C1834.404,969.745,1831.659,983.365,1831.659,1001.49z"/>
				<path style="fill:#FFFFFF;" d="M1951.274,1066.235c0-6.031,1.238-10.597,3.715-13.691c2.471-3.087,6.064-4.637,10.771-4.644
					c4.533-0.007,8.033,1.562,10.512,4.696c2.472,3.131,3.707,7.619,3.707,13.463c0,5.632-1.25,10.082-3.749,13.351
					c-2.504,3.271-5.992,4.933-10.471,4.981c-4.597,0.049-8.164-1.508-10.69-4.674
					C1952.54,1076.548,1951.274,1072.053,1951.274,1066.235z M1975.823,1029.472l-20.01-0.064l-4.208-105.247l28.374,0.845
					L1975.823,1029.472z"/>
			</g>
		</g>
		<g>
			<g>
				
					<linearGradient id="SVGID_00000054233717690598462120000001371935311965156481_" gradientUnits="userSpaceOnUse" x1="2041.421" y1="2207.281" x2="2809.2451" y2="2207.281">
					<stop  offset="0" style="stop-color:#444B8C"/>
					<stop  offset="0.9964" style="stop-color:#26264F"/>
				</linearGradient>
				<path style="fill:url(#SVGID_00000054233717690598462120000001371935311965156481_);" d="M2809.245,1995.409v410.789
					c0,23.761-20.38,44.487-44.167,45.502l-551.615,22.459h-0.099l-11.299-0.704c-8.746,0.372-16.799-2.384-23.836-6.473
					c-13.181-7.631-21.755-22.428-21.755-38.832v-270.696c0-22.324-7.26-44.253-20.168-62.489l-92.358-130.108
					c-3.643-5.129-3.315-13.454,0.773-18.237l3.897-6.219h0.024l43.758,1.536l669.345,7.93c2.131,0.024,5.984,0.459,8.016,0.756
					C2791.169,1953.92,2809.245,1973.184,2809.245,1995.409z"/>
				<g>
					
						<linearGradient id="SVGID_00000037692164062312678780000002822398539978062269_" gradientUnits="userSpaceOnUse" x1="2048.166" y1="2207.281" x2="2827.2776" y2="2207.281">
						<stop  offset="0.0036" style="stop-color:#6165D7"/>
						<stop  offset="1" style="stop-color:#AA80F9"/>
					</linearGradient>
					<path style="fill:url(#SVGID_00000037692164062312678780000002822398539978062269_);" d="M2827.278,1995.405v410.799
						c0,23.764-19.509,43.328-43.248,44.347l-561.784,22.915c-2.86,0.125-6.065,0.694-8.774,0.694h-0.1
						c-11.633,0-22.502-9.169-29.287-18.144c-5.668-7.407-9.578-17.82-9.578-27.862v-270.701c0-22.322-6.356-44.098-19.282-62.318
						l-107.059-151.359l0.064-1.998l44.881-1.375h0.199l674.713,8.659l14.441,1.061
						C2806.824,1950.321,2827.278,1971.043,2827.278,1995.405z"/>
					<g style="opacity:0.48;">
						<path style="fill:#FFFFFF;" d="M2827.278,2401.506v4.697c0,23.764-19.509,43.328-43.248,44.347l-561.784,22.915
							c-2.86,0.125-6.065,0.694-8.774,0.694h-0.1c-11.633,0-22.502-9.169-29.287-18.144c-5.668-7.407-9.578-17.82-9.578-27.862
							v-270.701c0-22.322-6.356-44.098-19.282-62.318l-107.059-151.359l0.064-0.175l44.688,0.448
							c0.051,0.05,0.172,0.099,0.221,0.149c36.219,45.117,59.782,92.073,132.814,126.974
							c50.512,24.161,89.289,25.429,125.333,21.924c20.731-2.014,40.581-5.693,61.312-7.507c31.296-2.733,64.537-1.417,105.8,15.811
							c160.036,66.768,150.468,251.038,287.309,295.086c1.641,0.546,4.225,1.068,5.914,1.566
							C2816.367,2399.443,2820.065,2400.561,2827.278,2401.506z"/>
					</g>
				</g>
			</g>
			<g>
				<path style="fill:#FFFFFF;" d="M2334.362,2296.58l-26.843,0.802v-58.764l-50.701,1.208v59.071l-27.362,0.817v-137.25
					l27.362-0.434v53.641l50.701-1.083v-53.363l26.843-0.426V2296.58z"/>
				<path style="fill:#FFFFFF;" d="M2487.69,2225.002c0,22.119-5.037,39.257-15.127,51.429
					c-10.111,12.198-24.642,18.592-43.633,19.163c-19.064,0.573-33.756-4.983-44.032-16.691
					c-10.298-11.732-15.455-28.867-15.455-51.385c0-22.516,5.17-39.808,15.499-51.859c10.304-12.025,25.037-18.176,44.159-18.475
					c19.046-0.298,33.562,5.402,43.589,17.079C2482.695,2185.915,2487.69,2202.823,2487.69,2225.002z M2397.311,2227.067
					c0,15.073,2.65,26.353,7.946,33.837c5.29,7.479,13.184,11.069,23.673,10.78c20.963-0.578,31.412-15.931,31.412-46.057
					c0-30.187-10.39-45.093-31.241-44.716c-10.489,0.19-18.412,4.156-23.756,11.907
					C2399.989,2200.578,2397.311,2211.997,2397.311,2227.067z"/>
				<path style="fill:#FFFFFF;" d="M2521.585,2290.986v-133.153l25.755-0.408v109.539l48.883-1.34v23.133L2521.585,2290.986z"/>
				<path style="fill:#FFFFFF;" d="M2697.74,2285.723l-8.516-30.88l-43.047,1.142l-8.61,31.535l-27.228,0.814l41.999-133.114
					l30.612-0.484l41.515,130.188L2697.74,2285.723z M2683.271,2231.724c-7.896-28.063-12.345-43.957-13.34-47.643
					c-0.997-3.687-1.71-6.604-2.141-8.748c-1.777,7.686-6.869,26.717-15.29,57.13L2683.271,2231.724z"/>
				<path style="fill:#FFFFFF;" d="M2741.939,2271.68c0-4.981,1.192-8.781,3.576-11.396c2.381-2.611,5.846-3.981,10.392-4.103
					c4.383-0.118,7.772,1.095,10.174,3.632c2.397,2.536,3.596,6.229,3.596,11.076c0,4.671-1.213,8.388-3.636,11.152
					c-2.426,2.763-5.803,4.211-10.134,4.342c-4.439,0.134-7.88-1.082-10.313-3.646
					C2743.157,2280.171,2741.939,2276.485,2741.939,2271.68z M2765.646,2240.656l-19.337,0.488l-4.051-86.809l27.419-0.435
					L2765.646,2240.656z"/>
			</g>
		</g>
		<g>
			<g>
				<path style="fill:#552D63;" d="M2647.29,1157.216c-85.803,0-165.191,20.891-229.868,56.33
					c-99.368,54.441-164.067,143.273-164.067,243.598c0,56.96,20.842,110.212,57.075,155.584l-38.004,101.026
					c-2.982,7.92,2.198,16.009,9.767,17.463l-0.011,0.014c0,0,0.122,0.013,0.293,0.031c0.579,0.098,1.169,0.154,1.772,0.172
					c3.902,0.348,12.462,0.933,17.888-0.017c-0.483-0.886-0.991-1.792-1.508-2.698c35.711-6.625,89.982-16.589,126.521-22.822
					c62.833,32.315,138.585,51.178,220.143,51.178c119.584,0,226.743-40.569,298.994-104.64
					c59.177-52.46,94.942-120.681,94.942-195.29C3041.226,1291.489,2864.845,1157.216,2647.29,1157.216z"/>
				<g>
					<g>
						
							<linearGradient id="SVGID_00000051375237202696132800000002897433562987555227_" gradientUnits="userSpaceOnUse" x1="2269.7964" y1="1457.1448" x2="3057.6692" y2="1457.1448">
							<stop  offset="0" style="stop-color:#FFC444"/>
							<stop  offset="0.9964" style="stop-color:#F36F56"/>
						</linearGradient>
						<path style="fill:url(#SVGID_00000051375237202696132800000002897433562987555227_);" d="M3057.669,1457.145
							c0,74.609-35.765,142.83-94.942,195.29c-72.252,64.071-179.41,104.64-298.994,104.64c-81.558,0-157.311-18.862-220.144-51.177
							c-41.549,7.088-106.039,19.002-140.079,25.344c-10.002,1.865-18.233-7.95-14.643-17.487l38.004-101.026
							c-36.232-45.372-57.075-98.624-57.075-155.583c0-100.326,64.7-189.157,164.068-243.599
							c64.677-35.439,144.066-56.33,229.868-56.33C2881.288,1157.216,3057.669,1291.489,3057.669,1457.145z"/>
						<path style="opacity:0.3;fill:#FFFFFF;" d="M2962.727,1652.434c-72.252,64.071-179.41,104.64-298.994,104.64
							c-81.558,0-157.311-18.862-220.144-51.177c-41.549,7.088-106.039,19.002-140.079,25.344
							c-10.002,1.865-18.233-7.95-14.643-17.487l38.004-101.026c-36.232-45.372-57.075-98.624-57.075-155.583
							c0-100.326,64.7-189.157,164.068-243.599c51.97,7.065,97.087,25.134,124.482,61.389
							c60.269,79.855-7.719,191.862,55.21,248.542c62.462,56.213,162.322-24.365,253.136,13.803
							C2900.826,1551.618,2935.869,1583.677,2962.727,1652.434z"/>
					</g>
				</g>
			</g>
			<g>
				<path style="fill:#FFFFFF;" d="M2475.588,1361.38c-0.708,2.145-3.072,3.342-6.62,3.108
					c-6.156,18.156-13.508,36.581-21.583,54.078l9.025,2.089c-0.476,2.392-2.375,4.078-6.411,4.589v151.583l-28.353,0.66v-111.744
					c-5.262,8.219-10.768,15.972-16.277,22.77c-3.839-6.431-12.245-19.064-17.294-25.259c21.367-25.217,42.404-69.726,54.791-112.13
					L2475.588,1361.38z M2612.117,1394.149c0,1.174-2.988,28.702-10.119,57.704l-17.063-2.886
					c13.149,24.822,24.424,56.895,28.559,78.687l-26.482,10.391c-3.233-21.867-14.568-55.429-27.09-80.311l24.088-8.994
					l-5.549-0.887c1.157-7.322,2.314-17.476,3.7-27.863l-28.514,0.205v122.522c0,21.762-4.653,32.04-45.323,32.988
					c-1.407-8.284-5.635-21.031-9.633-28.56c9.868,0.038,19.951-0.167,23.229-0.234c3.04-0.062,3.976-1.03,3.976-4.112v-122.404
					l-25.087,0.181c-7.53,16.715-16.013,31.798-25.458,43.821c-4.964-5.19-15.149-13.673-21.552-17.912
					c17.534-21.164,31.941-58.436,39.716-94.643l32.85,8.774c-0.701,1.899-2.808,3.324-6.319,3.09
					c-2.576,10.214-5.624,20.432-9.141,30.423l86.257-0.385L2612.117,1394.149z M2519.346,1459.847
					c-0.47,1.905-2.812,3.117-5.86,3.152c-7.039,27.892-19.028,58.768-32.936,78.318c-5.433-4.185-15.845-10.431-22.242-13.655
					c13.263-17.418,24.131-47.62,30.026-75.562L2519.346,1459.847z"/>
				<path style="fill:#FFFFFF;" d="M2719.738,1397.149l14.348,3.411l-1.342,4.647c-2.688,39.487-8.517,72.07-18.847,98.257
					c10.105,8.432,19.072,16.87,24.665,24.191l-16.13,22.842c-4.939-6.637-12.135-14.167-20.466-21.921
					c-10.603,18.383-24.403,32.677-41.425,44.05c-3.64-6.935-10.699-16.845-16.399-21.876c15.261-8.741,27.754-22.077,37.496-39.529
					c-4.075-3.433-8.382-6.397-12.465-9.604l-1.816,7.51l-22.302-11.578c5.244-19.515,10.936-46.034,16.396-73.455l-17.992,0.139
					v-26.008l22.762-0.113c2.953-16.371,5.676-32.266,7.942-46.752l30.733,3.258c-0.226,2.096-2.029,3.494-5.86,3.73
					c-2.258,12.117-4.74,25.641-7.45,39.638l23.657-0.117L2719.738,1397.149z M2686.389,1423.901
					c-3.617,17.531-7.467,35.307-11.09,51.698c5.435,3.429,11.317,7.314,17.192,11.427c6.32-18.026,10.83-39.272,13.531-63.276
					L2686.389,1423.901z M2852.559,1451.728v26.122l-48.265,0.658v59.432c0,22.805-7.504,31.272-48.99,31.778
					c-1.336-7.614-5.797-19.561-9.369-27.134c8.254,0.064,16.94,0.116,22.277,0.007c7.55-0.154,9.322-0.19,9.322-4.348v-59.37
					l-47.479,0.648v-26.466l47.479-0.514v-35.575l8.201,0.403c7.522-8.126,15.028-18.77,21.426-28.937l-69.049,0.276v-25.749
					l88.183-0.111l4.386-1.385l20.35,12.812c-0.874,1.609-3.059,2.759-5.244,3.226c-10.282,16.099-26.302,37.558-41.494,52.867
					v21.884L2852.559,1451.728z"/>
				<path style="fill:#FFFFFF;" d="M2886.458,1527.391c0-12.328,8.009-21.138,19.028-21.323c11.206-0.188,18.947,8.323,18.947,20.6
					c0,11.823-7.312,20.848-18.947,21.096C2893.819,1548.012,2886.458,1539.036,2886.458,1527.391z M2917.982,1489.702
					l-25.029,0.376l-4.33-120.007l33.661-0.069L2917.982,1489.702z"/>
			</g>
		</g>
		<g>
			
				<linearGradient id="SVGID_00000036252041273332969160000007025320866568571809_" gradientUnits="userSpaceOnUse" x1="373.9892" y1="1462.0668" x2="1043.7402" y2="1462.0668">
				<stop  offset="0" style="stop-color:#444B8C"/>
				<stop  offset="0.9964" style="stop-color:#26264F"/>
			</linearGradient>
			
				<circle style="fill:url(#SVGID_00000036252041273332969160000007025320866568571809_);" cx="708.864" cy="1462.067" r="334.876"/>
			<g>
				
					<linearGradient id="SVGID_00000145751601453330091180000017403791582459754648_" gradientUnits="userSpaceOnUse" x1="784.3069" y1="1264.8577" x2="646.7228" y2="1736.2871">
					<stop  offset="0" style="stop-color:#AA80F9"/>
					<stop  offset="0.9964" style="stop-color:#6165D7"/>
				</linearGradient>
				
					<circle style="fill:url(#SVGID_00000145751601453330091180000017403791582459754648_);" cx="734.125" cy="1436.807" r="334.876"/>
				
					<linearGradient id="SVGID_00000081614459498441266500000009548244104888867489_" gradientUnits="userSpaceOnUse" x1="422.344" y1="1436.8062" x2="1045.9052" y2="1436.8062">
					<stop  offset="0" style="stop-color:#AA80F9"/>
					<stop  offset="0.9964" style="stop-color:#6165D7"/>
				</linearGradient>
				<path style="fill:url(#SVGID_00000081614459498441266500000009548244104888867489_);" d="M1045.905,1436.807
					c0,172.202-139.577,311.781-311.781,311.781c-61.397,0-118.667-17.755-166.922-48.438
					c-87.073-55.266-144.858-152.537-144.858-263.342c0-172.204,139.577-311.781,311.781-311.781c2.884,0,5.737,0.03,8.589,0.121
					C910.94,1129.699,1045.905,1267.486,1045.905,1436.807z"/>
				<g>
					<polygon style="fill:#FFFFFF;" points="734.125,1293.536 454.121,1378.884 734.125,1464.232 1014.129,1378.884 					"/>
					<path style="fill:#FFFFFF;" d="M734.125,1490.266l-176.227-53.716v122.71c0,20.141,14.085,37.56,33.787,41.738
						c94.639,20.066,185.639,20.688,272.773,0.656c19.301-4.437,32.909-21.732,32.909-41.536v-119.61L734.125,1490.266z"/>
					<path style="fill:#FFFFFF;" d="M518.975,1545.053c-15.309,6.801-28.697,6.944-40.164,0.428
						c-3.353-1.905-5.021-5.822-4.26-9.603l24.922-123.913l24.733,122.976C525.045,1539.118,522.868,1543.323,518.975,1545.053z"/>
					<polygon style="fill:#FFFFFF;" points="734.125,1366.241 495.846,1391.56 495.846,1432.895 502.908,1432.895 503.632,1396.67 
											"/>
				</g>
				<path style="opacity:0.6;fill:#FFFFFF;" d="M1045.905,1436.807c0,172.202-139.577,311.781-311.781,311.781
					c-61.397,0-118.667-17.755-166.922-48.438c29.318-79.759,114.083-165.375,201.824-219.032
					c162.431-99.304,38.999-278.73-26.313-355.97C910.94,1129.699,1045.905,1267.486,1045.905,1436.807z"/>
			</g>
		</g>
		<g>
			
				<linearGradient id="SVGID_00000088106897326958320680000013897304024316786847_" gradientUnits="userSpaceOnUse" x1="1883.9431" y1="2144.4448" x2="2035.1069" y2="2298.3079">
				<stop  offset="0" style="stop-color:#AB316D"/>
				<stop  offset="1" style="stop-color:#792D3D"/>
			</linearGradient>
			<path style="fill:url(#SVGID_00000088106897326958320680000013897304024316786847_);" d="M1872.833,2247.184
				c0,0-2.12-50.488,24.841-84.99c26.961-34.502,63.75-82.904,54.295-52.141s-26.488,47.485-26.488,47.485
				s39.455,20.883,13.385,51.093s-29.72,43.767-29.72,46.374C1909.145,2257.612,1872.833,2247.184,1872.833,2247.184z"/>
			
				<linearGradient id="SVGID_00000094592923093290586180000013840868202960856483_" gradientUnits="userSpaceOnUse" x1="1170.0923" y1="2395.9539" x2="1723.2455" y2="2415.9131" gradientTransform="matrix(-1 0 0 1 3036.0095 0)">
				<stop  offset="0.0036" style="stop-color:#F36F56"/>
				<stop  offset="1" style="stop-color:#FFC444"/>
			</linearGradient>
			<path style="fill:url(#SVGID_00000094592923093290586180000013840868202960856483_);" d="M1863.139,2238.918
				c20.435-1.426,40.868-2.851,61.303-4.277c48.208,194.801,13.63,383.77-95.173,453.266
				c-169.99,108.577-485.908-95.987-554.37-318.729c-30.05-97.768-23.209-238.863,36.85-266.277
				c16.671-7.612,42.538-8.793,98.584,22.674c167.375,93.972,171.775,271.579,256.863,286.621
				C1705.028,2418.883,1766.119,2394.761,1863.139,2238.918z"/>
			
				<linearGradient id="SVGID_00000005968656198146381650000005649676040245108411_" gradientUnits="userSpaceOnUse" x1="-368.4121" y1="3865.855" x2="-1379.3221" y2="2414.5481" gradientTransform="matrix(-0.9968 0.0799 0.0799 0.9968 -324.9188 65.4365)">
				<stop  offset="0.0036" style="stop-color:#F36F56"/>
				<stop  offset="1" style="stop-color:#FFC444"/>
			</linearGradient>
			<path style="fill:url(#SVGID_00000005968656198146381650000005649676040245108411_);" d="M1395.128,3159.484
				c29.44-48.849-7.537-95.963-15.954-188.512c-9.539-104.893,30.868-122.359,70.831-296.19
				c26.575-115.61,52.086-226.597,21.636-356.513c-14.593-62.264-39.344-167.869-126.743-218.878
				c-45.102-26.323-106.684-23.691-228.005-17.342c-150.028,7.845-225.04,11.766-280.984,41.225
				c-8.189,4.314-178.383,96.887-190.097,247.785c-11.925,153.58,155.333,174.224,177.64,379.032
				c10.014,91.941-7.837,233.348-19.412,325.066c-11.116,88.065-18.765,110.614-1.386,137.275
				c41.887,64.264,170.124,45.946,426.601,9.323C1329.859,3207.387,1373.16,3195.936,1395.128,3159.484z"/>
			
				<linearGradient id="SVGID_00000148631115949735283570000014199858643693213312_" gradientUnits="userSpaceOnUse" x1="-368.5048" y1="3865.9331" x2="-1379.4326" y2="2414.6003" gradientTransform="matrix(-0.9968 0.0799 0.0799 0.9968 -324.9188 65.4365)">
				<stop  offset="0.0036" style="stop-color:#F36F56"/>
				<stop  offset="1" style="stop-color:#FFC444"/>
			</linearGradient>
			<path style="opacity:0.3;fill:url(#SVGID_00000148631115949735283570000014199858643693213312_);" d="M1004.898,2717.145
				c-10.845,39.918-49.848,69.733-77,166.827c-5.862,20.965-47.612,170.249,6.545,206.996
				c31.283,21.221,59.364-18.987,135.284-24.238c131.559-9.101,194.23,101.468,280.167,71.275
				c14.909-5.246,34.595-16.414,54.248-42.08c3.913,23.129,3.242,43.216-9.014,63.557c-21.968,36.452-65.269,47.903-165.874,62.271
				c-256.477,36.623-384.714,54.941-426.601-9.323c-17.379-26.661-9.73-49.21,1.386-137.275
				c11.576-91.718,29.426-233.125,19.412-325.066c-22.307-204.808-189.565-225.452-177.64-379.032
				c3.187-41.058,18.291-77.617,38.486-109.437C896.474,2347.48,1038.986,2591.707,1004.898,2717.145z"/>
			
				<linearGradient id="SVGID_00000031166509645535457970000012258665268998001549_" gradientUnits="userSpaceOnUse" x1="-984.0941" y1="3060.8838" x2="-821.0336" y2="3060.8838" gradientTransform="matrix(-0.9968 0.0799 0.0799 0.9968 -324.9188 65.4365)">
				<stop  offset="0" style="stop-color:#AB316D"/>
				<stop  offset="1" style="stop-color:#792D3D"/>
			</linearGradient>
			<path style="fill:url(#SVGID_00000031166509645535457970000012258665268998001549_);" d="M736.907,3019.251l42.451,27.105
				c7.622-8.801,25.269-26.559,52.822-32.622c31.043-6.822,66.676,2.963,67.505,12.87c0.665,7.938-21.034,15.942-24.388,17.182
				c-27.084,9.995-47.18,1.694-58.131,12.582c-3.872,3.851-8.699,11.011-19.797,17.647c-2.913,1.744-5.969,3.283-7.578,3.911
				c-18.077,7.029-49.087-24.442-51.755-27.191L736.907,3019.251z"/>
			
				<linearGradient id="SVGID_00000172442307274367204380000010514746414535694767_" gradientUnits="userSpaceOnUse" x1="-84.9104" y1="3668.3809" x2="-1095.8307" y2="2217.0593" gradientTransform="matrix(-0.9968 0.0799 0.0799 0.9968 -324.9188 65.4365)">
				<stop  offset="0.0036" style="stop-color:#F36F56"/>
				<stop  offset="1" style="stop-color:#FFC444"/>
			</linearGradient>
			<path style="fill:url(#SVGID_00000172442307274367204380000010514746414535694767_);" d="M862.324,2462.482
				c30.709-73.55,51.984-186.158,3.481-353.392c-319.599,125.933-482.596,424.477-418.952,661.139
				c52.464,195.098,243.34,290.126,285.918,310.119c9.907-22.552,19.816-45.096,29.722-67.647
				c-49.344-54.948-104.948-136.196-97.083-228.91C676.31,2655.255,800.152,2611.385,862.324,2462.482z"/>
			
				<linearGradient id="SVGID_00000015319985183118799100000001179067201435763624_" gradientUnits="userSpaceOnUse" x1="-2792.1426" y1="4268.6597" x2="-2792.1426" y2="3979.666" gradientTransform="matrix(-0.7795 0.6265 0.6265 0.7795 -3649.3015 622.2045)">
				<stop  offset="0" style="stop-color:#AB316D"/>
				<stop  offset="1" style="stop-color:#792D3D"/>
			</linearGradient>
			<path style="fill:url(#SVGID_00000015319985183118799100000001179067201435763624_);" d="M1109.038,1930.742
				c0,0-2.523,55.908-19.879,97.776c-15.683,37.84-98.174,61.627-114.893,70.072c-16.723,8.446,31.326,33.136,79.579,37.987
				c48.25,4.852,186.048-6.104,210.888-24.397c24.84-18.291-19.96-16.915-54.402-29.56c-34.439-12.642-54.353-79.998-48.274-110.569
				C1168.133,1941.477,1109.038,1930.742,1109.038,1930.742z"/>
			
				<linearGradient id="SVGID_00000114049528762775090180000003392037556555273869_" gradientUnits="userSpaceOnUse" x1="1880.2223" y1="2139.8035" x2="1888.7329" y2="2034.8395" gradientTransform="matrix(-1 0 0 1 3036.0095 0)">
				<stop  offset="0" style="stop-color:#444B8C"/>
				<stop  offset="0.9964" style="stop-color:#26264F"/>
			</linearGradient>
			<path style="fill:url(#SVGID_00000114049528762775090180000003392037556555273869_);" d="M1185.353,1910.472
				c25.037-24.599,28.531-27.472,31.26-35.975c10.942-34.127-15.527-80.863-50.246-92.369c-1.806-0.596-25.089-8.051-33.976,2.052
				c-7.548,8.577,3.556,20.425-1.724,36.957c-4.945,15.478-18.363,16.637-43.23,36.934c-20.486,16.715-33.216,27.107-36.153,41.724
				c-6.055,30.137,30.425,73.812,62.721,72.624C1125.619,1971.992,1128.778,1966.06,1185.353,1910.472z"/>
			<g>
				
					<linearGradient id="SVGID_00000062875881020715243250000007186263907847127191_" gradientUnits="userSpaceOnUse" x1="-2996.4204" y1="4185.3745" x2="-2861.3052" y2="3922.6504" gradientTransform="matrix(-0.7795 0.6265 0.6265 0.7795 -3649.3015 622.2045)">
					<stop  offset="0" style="stop-color:#AB316D"/>
					<stop  offset="1" style="stop-color:#792D3D"/>
				</linearGradient>
				<path style="fill:url(#SVGID_00000062875881020715243250000007186263907847127191_);" d="M1117.166,1977.075
					c0,0,26.613,30.134,67.155,20.172c36.299-8.918,27.037-92.229,0.472-105.539c-8.861-4.438-24.964-4.071-37.074,1.764
					c-7.155,3.448-9.142,7.029-20.939,12.436c-10.88,4.984-14.33,4.293-17.255,7.805c-3.663,4.389-5.238,13.835,6.234,36.635
					c-8.268-5.851-17.162-7.077-22.62-3.206c-0.871,0.62-3.089,2.784-4.044,5.634
					C1085.635,1963.097,1096.36,1973.582,1117.166,1977.075z"/>
			</g>
		</g>
	</g>
</g>
</svg>
