<?xml version="1.0" encoding="utf-8"?>
<!-- Generator: Adobe Illustrator 27.5.0, SVG Export Plug-In . SVG Version: 6.00 Build 0)  -->
<svg version="1.1" xmlns="http://www.w3.org/2000/svg" xmlns:xlink="http://www.w3.org/1999/xlink" x="0px" y="0px"
	 viewBox="0 0 3710 3710" style="enable-background:new 0 0 3710 3710;" xml:space="preserve">
<g id="Background">
	<g>
		<g>
			<rect style="fill:#FFFFFF;" width="3710" height="3710"/>
		</g>
	</g>
</g>
<g id="Illustration">
	<g>
		<path style="fill:#F4F7FA;" d="M3242.517,1650.967c-76.319-499.542-389.225-1113.263-1007.406-1177.491
			c0,0-469.352-57.088-932.03,29.437c-274.599,51.352-515.382,204.217-667.74,423.922
			c-152.36,219.706-203.251,487.607-141.487,743.016c40.116,165.89,67.223,337.577,59.784,508.037
			c-9.381,214.979-27.049,441.016,67.986,641.492c139.247,293.726,479.001,380.248,775.457,407.844
			c109.246,10.168,218.897,14.268,328.24,22.913c209.76,16.584,444.993-10.253,647.162-64.864
			C3402.783,2906.955,3318.835,2150.507,3242.517,1650.967z"/>
		<g>
			<g>
				<defs>
					<path id="SVGID_1_" d="M1377.51,2777.979c160.594,23.334,525.804-594.129,341.533-956.485
						c-76.892-151.205-210.607-181.58-251.558-369.038c-36.54-167.27,53.776-217.006,43.195-400.622
						c-14.878-258.182-216.192-554.605-426.225-552.008c-105.381,1.303-230.003,78.095-274.824,198.999
						c-35.898,96.835,37.159,205.123,6.357,222.634c-25.297,14.383-67.619-57.187-111.261-48.45
						c-64.365,12.887-124.622,199.052-82.17,363.513c72.676,281.546,400.135,320.417,395.985,518.277
						c-2.646,126.118-136.595,153.52-126.64,284.586c8.759,115.317,116.445,146.707,244.176,299.899
						C1336.16,2579.252,1291.414,2765.468,1377.51,2777.979z"/>
				</defs>
				
					<linearGradient id="SVGID_00000062155878844417341680000013215728446327852206_" gradientUnits="userSpaceOnUse" x1="1471.9048" y1="889.0505" x2="812.8542" y2="2593.0164">
					<stop  offset="0" style="stop-color:#AA80F9"/>
					<stop  offset="0.9964" style="stop-color:#6165D7"/>
				</linearGradient>
				
					<use xlink:href="#SVGID_1_"  style="overflow:visible;fill:url(#SVGID_00000062155878844417341680000013215728446327852206_);"/>
				<clipPath id="SVGID_00000070816367482874890980000012621832967182844574_">
					<use xlink:href="#SVGID_1_"  style="overflow:visible;"/>
				</clipPath>
				<g style="opacity:0.5;clip-path:url(#SVGID_00000070816367482874890980000012621832967182844574_);">
					<path style="fill:#FFFFFF;" d="M1323.968,2916.092c3.163,1.238,6.895,0.39,9.184-2.363c2.014-2.417,2.381-5.658,1.231-8.364
						c0.386-4.884,5.04-20.395,10.371-38.191c30.017-100.113,109.743-366.048,93.065-802.038
						c-20.978-548.328-184.507-1158.979-486.046-1814.993c-1.873-4.066-6.688-5.847-10.752-3.98
						c-4.069,1.87-5.847,6.684-3.98,10.752c323.972,704.81,654.991,1728.983,392.184,2605.606
						c-11.888,39.657-14.031,46.803-7.486,52.253C1322.425,2915.344,1323.179,2915.783,1323.968,2916.092z"/>
					<path style="fill:#FFFFFF;" d="M1341.531,1477.309c3.988,1.561,8.544-0.259,10.331-4.206c1.847-4.078,0.042-8.88-4.037-10.728
						c-335.65-152.102-530.038-294.543-634.006-387.251c-112.575-100.386-146.265-165.65-146.594-166.297
						c-2.005-3.988-6.879-5.599-10.883-3.589c-3.993,2.011-5.608,6.873-3.602,10.87c1.369,2.725,34.772,67.851,149.051,170.011
						c104.842,93.724,300.861,237.64,639.343,391.022C1341.263,1477.199,1341.399,1477.256,1341.531,1477.309z"/>
					<path style="fill:#FFFFFF;" d="M1250.613,1076.492c1.556,0.609,3.309,0.745,5.048,0.279
						c97.376-26.096,172.821-137.185,224.239-330.182c37.902-142.258,47.994-278.844,48.09-280.207
						c0.322-4.471-3.039-8.35-7.506-8.665c-4.465-0.32-8.345,3.041-8.661,7.508c-0.387,5.364-40.973,537.092-260.36,595.887
						c-4.321,1.158-6.891,5.604-5.732,9.928C1246.426,1073.627,1248.295,1075.584,1250.613,1076.492z"/>
					<path style="fill:#FFFFFF;" d="M1428.932,2170.364c2.197,0.86,4.753,0.758,6.963-0.5
						c138.556-78.735,215.733-231.04,256.08-344.942c43.538-122.909,54.747-228.9,54.855-229.956
						c0.455-4.452-2.782-8.43-7.236-8.889c-4.454-0.458-8.435,2.783-8.891,7.237c-0.109,1.039-11.177,105.409-54.134,226.542
						c-39.425,111.178-114.573,259.703-248.682,335.914c-3.892,2.212-5.256,7.16-3.044,11.052
						C1425.797,2168.501,1427.262,2169.71,1428.932,2170.364z"/>
				</g>
			</g>
		</g>
		<g>
			<g>
				<defs>
					<path id="SVGID_00000015312316953654967210000006227459145065097372_" d="M1679.954,3094.223
						c65.313-318.648,56.2-565.577,37.146-726.674c-14.956-126.454-48.243-303.186-138.203-325.399
						c-43.109-10.645-67.694,21.982-112.693,8.791c-84.966-24.91-82.785-166.291-136.41-269.129
						c-91.733-175.921-387.036-316.266-598.5-212.249c-254.644,125.256-281.712,552.708-144.779,684.434
						c81.139,78.052,226.31,58.483,234.207,115.246c7.947,57.128-137.547,88.091-147.748,179.683
						c-10.56,94.817,132.096,180.746,140.748,185.834c172.892,101.643,308.895-3.487,498.621,43.425
						C1415.265,2803.633,1549.385,2877.628,1679.954,3094.223z"/>
				</defs>
				<use xlink:href="#SVGID_00000015312316953654967210000006227459145065097372_"  style="overflow:visible;fill:#BFC8D6;"/>
				<clipPath id="SVGID_00000157993772996321559600000008413930772911644855_">
					<use xlink:href="#SVGID_00000015312316953654967210000006227459145065097372_"  style="overflow:visible;"/>
				</clipPath>
				<g style="clip-path:url(#SVGID_00000157993772996321559600000008413930772911644855_);">
					<g>
						<path style="fill:#FCFDFE;" d="M1715.672,3351.952l-4.95,0.183c-28.331-762.532-506.006-1425.624-1277.776-1773.77
							l2.036-4.518c365.764,164.997,677.059,410.446,900.231,709.812C1569.841,2598.386,1701.4,2967.795,1715.672,3351.952z"/>
						<path style="fill:#FCFDFE;" d="M1949.286,2245.89c-139.703,155.057-275.462,457.698-302.624,674.637l-4.915-0.618
							c27.271-217.791,163.582-521.64,303.857-677.335L1949.286,2245.89z"/>
						<path style="fill:#FCFDFE;" d="M1708.397,3202.328l-4.708,1.547c-35.528-107.948-124.265-193.789-263.743-255.135
							c-102.272-44.984-228.938-75.994-376.488-92.172l0.543-4.925c148.048,16.233,275.206,47.374,377.938,92.561
							C1582.761,3006.138,1672.411,3092.984,1708.397,3202.328z"/>
						<path style="fill:#FCFDFE;" d="M1301.888,2242.399l-4.621,1.789c-77.434-200.033-24.821-419.371,32.948-568.152l4.621,1.794
							C1277.382,1825.793,1225.027,2043.849,1301.888,2242.399z"/>
						<path style="fill:#FCFDFE;" d="M957.518,1892.39l-2.327,4.374c-213.358-113.443-463.678-72.5-593.9-37.999l-1.271-4.791
							C490.947,1819.289,742.665,1778.152,957.518,1892.39z"/>
					</g>
				</g>
			</g>
		</g>
		<g>
			<g>
				<defs>
					<path id="SVGID_00000054245807675658277300000017211843450650455702_" d="M1697.139,2943.701
						c-168.102-278.468-242.08-514.231-277.99-672.427c-28.188-124.176-55.912-301.866,21.443-352.881
						c37.068-24.447,71.148-1.919,109.146-29.397c71.746-51.886,22.417-184.4,38.568-299.25
						c27.63-196.469,259.007-427.477,493.08-400.156c281.869,32.9,450.309,426.697,365.303,596.628
						c-50.37,100.691-193.729,130.789-182.191,186.926c11.613,56.497,159.085,37.028,199.325,119.938
						c41.657,85.828-64.055,214.512-70.509,222.2c-128.953,153.603-292.281,100.001-455.401,207.652
						C1849.427,2581.331,1747.768,2695.914,1697.139,2943.701z"/>
				</defs>
				
					<linearGradient id="SVGID_00000024683761301894064730000011902243603680539045_" gradientUnits="userSpaceOnUse" x1="2121.8052" y1="1755.3684" x2="1445.4338" y2="2511.9285">
					<stop  offset="0" style="stop-color:#FF9085"/>
					<stop  offset="1" style="stop-color:#FB6FBB"/>
				</linearGradient>
				
					<use xlink:href="#SVGID_00000054245807675658277300000017211843450650455702_"  style="overflow:visible;fill:url(#SVGID_00000024683761301894064730000011902243603680539045_);"/>
				<clipPath id="SVGID_00000113355546737853142910000005692115251086330545_">
					<use xlink:href="#SVGID_00000054245807675658277300000017211843450650455702_"  style="overflow:visible;"/>
				</clipPath>
				<g style="clip-path:url(#SVGID_00000113355546737853142910000005692115251086330545_);">
					<g>
						<path style="fill:#FCFDFE;" d="M1159.648,2234.256c183.508,99.419,412.649,339.245,510.787,534.615l4.425-2.226
							c-98.525-196.136-328.59-436.917-512.851-536.746L1159.648,2234.256z"/>
						<path style="fill:#FCFDFE;" d="M1706.48,3055.094l4.954-0.116c-2.612-113.615,52.314-224.186,163.251-328.639
							c81.344-76.592,190.35-148.171,323.997-212.755l-2.158-4.46c-134.099,64.802-243.524,136.669-325.234,213.606
							C1759.284,2828.188,1703.834,2940.011,1706.48,3055.094z"/>
						<path style="fill:#FCFDFE;" d="M1768.615,2014.492l4.953,0.141c6.091-214.411-116.835-403.532-221.028-524.432l-3.755,3.236
							C1652.408,1613.672,1774.662,1801.67,1768.615,2014.492z"/>
					</g>
				</g>
			</g>
		</g>
		<g>
			<g>
				<g>
					
						<linearGradient id="SVGID_00000112593557432831839940000014596421329866304946_" gradientUnits="userSpaceOnUse" x1="2151.7473" y1="2745.4932" x2="1115.3315" y2="1861.3828" gradientTransform="matrix(1 0 0 1 204.6633 0)">
						<stop  offset="0" style="stop-color:#444B8C"/>
						<stop  offset="0.9964" style="stop-color:#26264F"/>
					</linearGradient>
					<path style="fill:url(#SVGID_00000112593557432831839940000014596421329866304946_);" d="M2100.949,856.838v2215.463
						c0,33.131-27.835,41.16-59.389,43.23l-1075.654,91.345l-16.208,1.062c-33.251,2.178-60.494-23.919-60.494-57.997V871.179
						c0-34.077,27.243-62.243,60.494-62.589l21.997-0.229l1079.675,38.497C2082.927,846.537,2100.949,823.707,2100.949,856.838z"/>
					
						<linearGradient id="SVGID_00000129907994825049814590000008917639948150472110_" gradientUnits="userSpaceOnUse" x1="-1355.8828" y1="2671.3059" x2="2605.8926" y2="2818.6804" gradientTransform="matrix(0 -1 1 0 -1184.369 1734.3226)">
						<stop  offset="0" style="stop-color:#444B8C"/>
						<stop  offset="0.9964" style="stop-color:#26264F"/>
					</linearGradient>
					<path style="fill:url(#SVGID_00000129907994825049814590000008917639948150472110_);" d="M2134.663,855.375v2215.829
						c0,33.136-25.791,61.937-57.356,64.004L983.032,3206.87c-33.262,2.178-60.514-23.923-60.514-58.006V869.727
						c0-34.083,27.252-62.253,60.514-62.6l1094.275-11.402C2108.872,795.396,2134.663,822.239,2134.663,855.375z"/>
					
						<linearGradient id="SVGID_00000080902530538297297530000006523888694491185287_" gradientUnits="userSpaceOnUse" x1="960.1397" y1="2040.1541" x2="2099.041" y2="2040.1541">
						<stop  offset="0" style="stop-color:#FCB148"/>
						<stop  offset="0.0521" style="stop-color:#FDBA46"/>
						<stop  offset="0.1424" style="stop-color:#FFC244"/>
						<stop  offset="0.3183" style="stop-color:#FFC444"/>
						<stop  offset="0.4849" style="stop-color:#FDB946"/>
						<stop  offset="0.7754" style="stop-color:#F99C4D"/>
						<stop  offset="0.8658" style="stop-color:#F8924F"/>
						<stop  offset="1" style="stop-color:#F8924F"/>
					</linearGradient>
					<path style="fill:url(#SVGID_00000080902530538297297530000006523888694491185287_);" d="M2099.041,978.713v2052.345
						c0,30.932-24.094,57.791-53.58,59.689l-1028.973,66.259c-30.973,1.994-56.348-22.358-56.348-54.119V995.495
						c0-31.761,25.375-58.088,56.348-58.503l1028.973-13.799C2074.947,922.797,2099.041,947.782,2099.041,978.713z"/>
				</g>
				<path style="fill:#DE8BDF;" d="M1557.45,868.953c0,11.643-9.097,21.195-20.324,21.335c-11.233,0.14-20.344-9.193-20.344-20.847
					s9.11-21.206,20.344-21.335C1548.353,847.977,1557.45,857.31,1557.45,868.953z"/>
			</g>
			<g>
				<path style="fill:#FFFFFF;" d="M1855.315,1468.403c0,184.446-144.031,339.581-323.21,346.561
					c-180.867,7.046-328.744-139.276-328.744-326.881s147.877-342.855,328.744-346.728
					C1711.284,1137.518,1855.315,1283.956,1855.315,1468.403z"/>
				<path style="fill:#FFFFFF;" d="M1532.053,1823.141c-89.748,3.478-174.218-29.454-237.895-92.704
					c-63.715-63.289-98.788-149.232-98.788-242.03c0-93.583,35.583-182.197,100.227-249.549
					c63.564-66.228,147.579-103.792,236.671-105.682c88.666-1.901,171.906,31.87,234.357,95.128
					c62.37,63.175,96.735,148.34,96.735,239.776c0,91.466-34.384,178.742-96.79,245.72
					c-62.488,67.066-145.766,105.889-234.463,109.34L1532.053,1823.141z M1525.402,1149.743
					c-82.297,3.462-159.69,38.932-218.608,100.313c-61.557,64.128-95.441,148.536-95.441,237.704
					c0,88.481,33.439,170.419,94.183,230.749c60.649,60.235,141.09,91.597,226.516,88.283c0.02-0.001,0.05-0.002,0.05-0.002
					c173.664-6.773,315.169-158.432,315.169-338.061c0-179.72-141.577-322.907-315.33-319.194
					C1529.764,1149.582,1527.574,1149.652,1525.402,1149.743z"/>
			</g>
			<g>
				<g>
					
						<linearGradient id="SVGID_00000143601760564742604160000008557669065996999610_" gradientUnits="userSpaceOnUse" x1="1841.2354" y1="1005.9687" x2="947.8935" y2="2258.5911" gradientTransform="matrix(1 -0.001 0.001 1 6.8102 -0.2172)">
						<stop  offset="0" style="stop-color:#AA80F9"/>
						<stop  offset="0.9964" style="stop-color:#6165D7"/>
					</linearGradient>
					<path style="fill:url(#SVGID_00000143601760564742604160000008557669065996999610_);" d="M1545.107,1590.344
						c33.051-0.998,59.93-26.815,59.901-57.377l-0.188-203.751c-0.028-30.558-26.955-55.486-60.006-55.386
						c-33.24,0.1-60.554,25.451-60.526,56.328l0.191,205.871C1484.507,1566.909,1511.868,1591.348,1545.107,1590.344z"/>
					
						<linearGradient id="SVGID_00000127009251934176342450000001925388762854680491_" gradientUnits="userSpaceOnUse" x1="1904.5134" y1="1051.1256" x2="1011.1968" y2="2303.7129" gradientTransform="matrix(1 -0.001 0.001 1 6.8102 -0.2172)">
						<stop  offset="0" style="stop-color:#AA80F9"/>
						<stop  offset="0.9964" style="stop-color:#6165D7"/>
					</linearGradient>
					<path style="fill:url(#SVGID_00000127009251934176342450000001925388762854680491_);" d="M1639.95,1490.817
						c-5.289,0.116-9.577,4.215-9.572,9.16l0.035,38.116c0.04,43.623-38.062,80.36-85.279,81.907
						c-47.603,1.559-86.656-33.179-86.697-77.451l-0.036-38.683c-0.005-5.019-4.432-8.988-9.892-8.868
						c-5.466,0.119-9.897,4.288-9.892,9.316l0.036,38.749c0.047,51.31,42.824,92.104,96.759,94.854l0.054,58.551l-32.321,1.27
						c-5.415,0.213-9.805,4.442-9.801,9.443c0.005,5.004,4.402,8.878,9.817,8.657l83.821-3.423c5.332-0.218,9.649-4.412,9.644-9.371
						c-0.005-4.956-4.328-8.807-9.661-8.598l-32.041,1.259l-0.054-58.454c53.254-6.374,94.732-49.263,94.685-99.652l-0.035-38.053
						C1649.518,1494.607,1645.234,1490.701,1639.95,1490.817z"/>
				</g>
			</g>
			<g>
				<path style="fill:#FFFFFF;" d="M1988.818,1917.245l-900.702,19.735c-17.024,0.373-30.303,13.172-30.303,28.586v719.111
					c0,15.414,13.41,27.116,30.434,26.269l900.774-44.849c15.918-0.792,28.343-13.395,28.343-28.276v-694.261
					C2017.365,1928.679,2004.737,1916.897,1988.818,1917.245z"/>
				
					<linearGradient id="SVGID_00000049224296641678272590000016203549212773259942_" gradientUnits="userSpaceOnUse" x1="1289.4556" y1="2538.3164" x2="1859.2614" y2="3294.5071">
					<stop  offset="0" style="stop-color:#AA80F9"/>
					<stop  offset="0.9964" style="stop-color:#6165D7"/>
				</linearGradient>
				<path style="fill:url(#SVGID_00000049224296641678272590000016203549212773259942_);" d="M1780.057,2889.615
					c0,23.932-19.167,44.431-42.058,45.787l-389.515,23.053c-23.593,1.397-43.044-17.208-43.044-41.558v-58.787
					c0-24.35,19.134-45.122,42.727-46.394l389.844-20.978c22.891-1.234,42.046,17.168,42.046,41.1V2889.615z"/>
				<g>
					
						<linearGradient id="SVGID_00000025409797049147994530000017663720129354175389_" gradientUnits="userSpaceOnUse" x1="1290.1713" y1="1896.8904" x2="1152.6008" y2="3043.8809">
						<stop  offset="0" style="stop-color:#444B8C"/>
						<stop  offset="0.9964" style="stop-color:#26264F"/>
					</linearGradient>
					<path style="fill:url(#SVGID_00000025409797049147994530000017663720129354175389_);" d="M1296.457,2400.431l-29.912,1.051
						v-62.89l-56.219,1.852v63.014l-30.191,1.061v-146.156l30.191-0.907v57.222l56.219-1.801v-57.11l29.912-0.898V2400.431z"/>
					
						<linearGradient id="SVGID_00000101812553615913286080000003183847872323386774_" gradientUnits="userSpaceOnUse" x1="1436.5542" y1="1914.4489" x2="1298.9838" y2="3061.4404">
						<stop  offset="0" style="stop-color:#444B8C"/>
						<stop  offset="0.9964" style="stop-color:#26264F"/>
					</linearGradient>
					<path style="fill:url(#SVGID_00000101812553615913286080000003183847872323386774_);" d="M1427.814,2395.815l-80.904,2.843
						v-145.304l80.904-2.43v25.172l-51.064,1.579v31.87l47.518-1.523v25.176l-47.518,1.565v37.43l51.064-1.749V2395.815z"/>
					
						<linearGradient id="SVGID_00000050632486319397615380000007871279399517073081_" gradientUnits="userSpaceOnUse" x1="1561.5659" y1="1929.4417" x2="1423.9955" y2="3076.4331">
						<stop  offset="0" style="stop-color:#444B8C"/>
						<stop  offset="0.9964" style="stop-color:#26264F"/>
					</linearGradient>
					<path style="fill:url(#SVGID_00000050632486319397615380000007871279399517073081_);" d="M1471.676,2394.273v-144.667
						l29.579-0.888v119.21l56.41-1.932v25.255L1471.676,2394.273z"/>
					
						<linearGradient id="SVGID_00000041991532003419989790000015114626446031126422_" gradientUnits="userSpaceOnUse" x1="1683.5862" y1="1944.0779" x2="1546.0157" y2="3091.0691">
						<stop  offset="0" style="stop-color:#444B8C"/>
						<stop  offset="0.9964" style="stop-color:#26264F"/>
					</linearGradient>
					<path style="fill:url(#SVGID_00000041991532003419989790000015114626446031126422_);" d="M1596.315,2389.893v-144.03
						l29.319-0.88v118.686l55.915-1.915v25.144L1596.315,2389.893z"/>
					
						<linearGradient id="SVGID_00000027604245270533083950000012787989261799871117_" gradientUnits="userSpaceOnUse" x1="1820.8948" y1="1960.5457" x2="1683.3243" y2="3107.5371">
						<stop  offset="0" style="stop-color:#444B8C"/>
						<stop  offset="0.9964" style="stop-color:#26264F"/>
					</linearGradient>
					<path style="fill:url(#SVGID_00000027604245270533083950000012787989261799871117_);" d="M1843.832,2309.618
						c0,23.631-5.582,41.985-16.754,55.067c-11.18,13.093-27.221,20.012-48.139,20.748c-20.949,0.738-37.057-5.066-48.306-17.418
						c-11.258-12.362-16.89-30.483-16.89-54.355c0-23.872,5.648-42.279,16.937-55.212c11.28-12.923,27.434-19.696,48.446-20.325
						c20.98-0.628,37.005,5.213,48.092,17.515C1838.296,2267.93,1843.832,2285.921,1843.832,2309.618z M1744.224,2312.863
						c0,16.006,2.904,27.963,8.71,35.866c5.804,7.9,14.474,11.652,26.004,11.256c23.095-0.792,34.628-17.252,34.628-49.382
						c0-32.194-11.471-47.938-34.442-47.229c-11.531,0.356-20.232,4.689-26.098,13.002
						C1747.16,2284.694,1744.224,2296.856,1744.224,2312.863z"/>
					
						<linearGradient id="SVGID_00000058551557926630450510000011027122716816605087_" gradientUnits="userSpaceOnUse" x1="1935.7211" y1="1974.3179" x2="1798.1506" y2="3121.3096">
						<stop  offset="0" style="stop-color:#444B8C"/>
						<stop  offset="0.9964" style="stop-color:#26264F"/>
					</linearGradient>
					<path style="fill:url(#SVGID_00000058551557926630450510000011027122716816605087_);" d="M1880.032,2365.977
						c0-5.461,1.392-9.638,4.175-12.528c2.782-2.89,6.831-4.426,12.145-4.606c5.127-0.175,9.094,1.119,11.903,3.882
						c2.808,2.761,4.212,6.804,4.212,12.129c0,5.13-1.419,9.223-4.259,12.277c-2.84,3.055-6.792,4.672-11.857,4.851
						c-5.191,0.183-9.208-1.122-12.053-3.914C1881.455,2375.273,1880.032,2371.243,1880.032,2365.977z M1907.746,2331.697
						l-22.612,0.756l-4.731-95.121l32.064-0.963L1907.746,2331.697z"/>
				</g>
			</g>
			
				<linearGradient id="SVGID_00000080201097174938168820000011267021249810465454_" gradientUnits="userSpaceOnUse" x1="1114.4291" y1="1114.9731" x2="3766.4253" y2="4326.125">
				<stop  offset="0" style="stop-color:#FFC444"/>
				<stop  offset="0.9964" style="stop-color:#F36F56"/>
			</linearGradient>
			<path style="opacity:0.2;fill:url(#SVGID_00000080201097174938168820000011267021249810465454_);" d="M2134.662,854.11
				c0-32.883-25.658-58.715-57.975-58.379l-598.199,6.234c221.477,229.664,271.343,428.409,277.037,565.444
				c16.253,391.196-314.703,574.563-253.248,1000.195c16.854,116.728,54.138,189.109,68.704,391.344
				c12.42,172.436-0.562,315.937-13.494,410.303l519.82-34.042c31.564-2.067,57.354-30.867,57.354-64.004V854.11z"/>
		</g>
		<g>
			<g style="opacity:0.6;">
				<path style="fill:#FFFFFF;" d="M2117.656,1456.973c3.192-2.366,5.522-5.753,6.231-9.598
					c12.523-67.964,10.806-135.69-5.318-200.971c-16.821-68.107-48.539-130.054-94.174-183.723
					c-45.634-53.667-102.11-95.442-167.48-123.996c-62.655-27.368-130.383-41.311-200.933-41.591
					c-7.979-0.031-15.289,6.507-16.337,14.591c-1.046,8.074,4.549,14.654,12.505,14.707
					c137.774,0.931,262.084,56.585,347.205,156.691c85.121,100.106,118.472,229.871,94.404,362.663
					c-1.39,7.668,4.204,14.248,12.505,14.707C2110.418,1460.683,2114.467,1459.337,2117.656,1456.973z"/>
				<path style="fill:#FFFFFF;" d="M2197.586,1461.362c3.256-2.382,5.643-5.791,6.388-9.662
					c15.026-78.163,13.555-156.182-4.667-231.462c-19.032-78.629-55.429-150.145-108.051-212.031
					c-52.622-61.886-117.863-109.901-193.401-142.492c-72.32-31.203-150.433-46.778-231.683-46.497
					c-8.046,0.029-15.421,6.71-16.486,14.914c-1.06,8.191,4.575,14.819,12.596,14.814c159.945-0.101,304.563,63.859,403.401,180.098
					c98.838,116.239,136.848,267.057,107.72,421.006c-1.461,7.721,4.175,14.348,12.597,14.813
					C2190.214,1465.095,2194.333,1463.741,2197.586,1461.362z"/>
				<path style="fill:#FFFFFF;" d="M1961.223,1448.384c3.07-2.337,5.289-5.679,5.929-9.472
					c16.744-99.307-8.864-195.961-72.359-270.635c-63.496-74.674-155.948-116.864-258.752-118.768
					c-7.85-0.146-15.031,6.114-16.051,13.97c-1.016,7.845,4.5,14.33,12.327,14.496c94.765,2.014,179.923,41.045,238.45,109.876
					c58.527,68.831,82.285,157.89,67.11,249.479c-1.253,7.565,4.262,14.05,12.327,14.496
					C1954.241,1452.049,1958.156,1450.718,1961.223,1448.384z"/>
				<path style="fill:#FFFFFF;" d="M2038.877,1452.647c3.13-2.352,5.404-5.716,6.078-9.535
					c21.141-119.864-9.274-236.813-86.033-327.086c-76.758-90.271-188.727-140.773-312.982-142.177
					c-7.914-0.088-15.16,6.308-16.192,14.277c-1.031,7.958,4.524,14.491,12.415,14.601c116.052,1.631,220.548,48.974,292.234,133.28
					c71.687,84.308,100.285,193.491,80.861,305.499c-1.321,7.616,4.233,14.149,12.415,14.601
					C2031.767,1456.335,2035.75,1454.996,2038.877,1452.647z"/>
			</g>
		</g>
		<g>
			
				<linearGradient id="SVGID_00000062880832349129252720000013036339950653315003_" gradientUnits="userSpaceOnUse" x1="-2929.0613" y1="2599.3794" x2="-3182.2246" y2="1956.3907" gradientTransform="matrix(1 0.0085 -0.0085 1 5929.604 10.923)">
				<stop  offset="0" style="stop-color:#444B8C"/>
				<stop  offset="0.9964" style="stop-color:#26264F"/>
			</linearGradient>
			<path style="fill:url(#SVGID_00000062880832349129252720000013036339950653315003_);" d="M3075.604,2110.325
				c-2.5-54.841-37.366-89.969-46.068-98.469c-51.974-50.771-125.35-48.802-148.836-48.173
				c-83.329,2.234-102.144,43.594-160.283,28.201c-49.224-13.032-53.013-47.25-95.385-49.566
				c-44.292-2.421-90.748,32.206-109.346,71.56c-35.849,75.86,20.092,194.089,99.933,229.772
				c82.957,37.074,127.826-43.52,279.923-19.724c55.469,8.678,87.976,25.417,123.927,5.102
				C3058.851,2206.775,3077.598,2154.054,3075.604,2110.325z"/>
			<g>
				
					<linearGradient id="SVGID_00000088849424865952452950000003206228097928663995_" gradientUnits="userSpaceOnUse" x1="6083.2393" y1="-1894.0343" x2="6228.5698" y2="-927.7084" gradientTransform="matrix(-0.9751 0.2218 0.2218 0.9751 8433.3467 -681.2546)">
					<stop  offset="0" style="stop-color:#AA80F9"/>
					<stop  offset="0.9964" style="stop-color:#6165D7"/>
				</linearGradient>
				<path style="fill:url(#SVGID_00000088849424865952452950000003206228097928663995_);" d="M2370.186,1672.45l8.132-15.421
					l-14.24-17.87c-3.177-3.987-8.566-5.447-13.324-3.617c-25.197,9.69-102.019,45.655-134.06,133.482
					c-1.682,4.611-0.301,9.788,3.457,12.946c6.826,5.735,15.054,10.914,15.054,10.914L2370.186,1672.45z"/>
				
					<linearGradient id="SVGID_00000080207180728624494890000014196540380902927802_" gradientUnits="userSpaceOnUse" x1="5963.7173" y1="-1876.0519" x2="6109.0474" y2="-909.7316" gradientTransform="matrix(-0.9751 0.2218 0.2218 0.9751 8433.3467 -681.2546)">
					<stop  offset="0" style="stop-color:#AA80F9"/>
					<stop  offset="0.9964" style="stop-color:#6165D7"/>
				</linearGradient>
				<path style="fill:url(#SVGID_00000080207180728624494890000014196540380902927802_);" d="M2427.23,1877.569l-15.863,51.742
					c0,0-2.327,15.237-5.505,20.863c5.086,8.648,19.728,14.231,19.728,14.231l37.147-56.137l-33.715-30.66L2427.23,1877.569z"/>
				
					<linearGradient id="SVGID_00000056427194906491051780000011394886090131950984_" gradientUnits="userSpaceOnUse" x1="6586.2397" y1="814.8686" x2="6249.3647" y2="1554.2826" gradientTransform="matrix(-0.9751 0.2218 0.2218 0.9751 8433.3467 -681.2546)">
					<stop  offset="0" style="stop-color:#444B8C"/>
					<stop  offset="0.9964" style="stop-color:#26264F"/>
				</linearGradient>
				<path style="fill:url(#SVGID_00000056427194906491051780000011394886090131950984_);" d="M2513.575,1898.607
					c0,0-119.126-144.639-135.258-241.578c-98.667,15.046-143.114,135.855-143.114,135.855s185.007,85.533,242.249,142.051
					C2500.601,1932.628,2513.575,1898.607,2513.575,1898.607z"/>
				
					<linearGradient id="SVGID_00000168090260851392817470000011564530853941640609_" gradientUnits="userSpaceOnUse" x1="5901.6978" y1="-1866.74" x2="6047.0283" y2="-900.4135" gradientTransform="matrix(-0.9751 0.2218 0.2218 0.9751 8433.3467 -681.2546)">
					<stop  offset="0" style="stop-color:#AA80F9"/>
					<stop  offset="0.9964" style="stop-color:#6165D7"/>
				</linearGradient>
				<path style="fill:url(#SVGID_00000168090260851392817470000011564530853941640609_);" d="M2491.843,1912.788
					c0,0,8.388-11.528,21.732-14.181c5.906-1.465-3.402,34.388-36.123,36.328C2482.25,1927.552,2487.047,1920.171,2491.843,1912.788
					z"/>
			</g>
			
				<linearGradient id="SVGID_00000116930410856432439250000001254302946288197015_" gradientUnits="userSpaceOnUse" x1="4115.9263" y1="2000.5267" x2="4102.4482" y2="1938.7866" gradientTransform="matrix(-1 0 0 1 6518.8149 0)">
				<stop  offset="0" style="stop-color:#FFC444"/>
				<stop  offset="0.9964" style="stop-color:#F36F56"/>
			</linearGradient>
			<path style="fill:url(#SVGID_00000116930410856432439250000001254302946288197015_);" d="M2438.125,1911.792
				c0,0-18.283-23.266-23.86-14.023c-5.577,9.243-19.934,35.57-6.063,42.804C2422.073,1947.806,2437.125,1935.376,2438.125,1911.792
				z"/>
			
				<linearGradient id="SVGID_00000183245778191345821080000002997570555563230391_" gradientUnits="userSpaceOnUse" x1="2347.9023" y1="1136.9336" x2="1984.9564" y2="2709.7017">
				<stop  offset="0" style="stop-color:#AA80F9"/>
				<stop  offset="0.9964" style="stop-color:#6165D7"/>
			</linearGradient>
			<path style="fill:url(#SVGID_00000183245778191345821080000002997570555563230391_);" d="M2313.851,1576.045
				c-0.77,4.543-3.912,8.541-8.568,10.178c-128.313,45.143-133.165,141.134-133.2,142.069c-0.245,7.226-6.321,12.881-13.55,12.628
				c-7.228-0.255-12.881-6.321-12.629-13.549c0.158-4.682,5.693-114.846,150.684-165.854c6.822-2.402,14.302,1.184,16.7,8.006
				C2314.057,1571.693,2314.21,1573.931,2313.851,1576.045z"/>
			
				<linearGradient id="SVGID_00000149364633434962174810000012496165314926813361_" gradientUnits="userSpaceOnUse" x1="2308.4263" y1="1127.8234" x2="1945.4808" y2="2700.5896">
				<stop  offset="0" style="stop-color:#AA80F9"/>
				<stop  offset="0.9964" style="stop-color:#6165D7"/>
			</linearGradient>
			<path style="fill:url(#SVGID_00000149364633434962174810000012496165314926813361_);" d="M2300.38,1525.256
				c-0.957,5.65-4.865,10.622-10.655,12.657c-159.563,56.137-165.597,175.507-165.64,176.669
				c-0.305,8.986-7.861,16.018-16.85,15.703c-8.988-0.317-16.018-7.86-15.705-16.849c0.197-5.823,7.08-142.817,187.383-206.248
				c8.483-2.987,17.786,1.473,20.768,9.956C2300.635,1519.844,2300.826,1522.627,2300.38,1525.256z"/>
			
				<linearGradient id="SVGID_00000091702458967743233280000015478275355941394081_" gradientUnits="userSpaceOnUse" x1="4129.6494" y1="2077.6292" x2="3296.3806" y2="3125.6946" gradientTransform="matrix(-1 0 0 1 6518.8149 0)">
				<stop  offset="0" style="stop-color:#AA80F9"/>
				<stop  offset="0.9964" style="stop-color:#6165D7"/>
			</linearGradient>
			<path style="fill:url(#SVGID_00000091702458967743233280000015478275355941394081_);" d="M2561.295,2066.204
				c0,0-108.785-3.502-155.432,26.935c-59.247,38.658-20.595-88.982,25.934-138.112c-25.181-29.53-32.352-30.008-32.352-30.008
				s-224.893,206.015-81.749,273.932c143.144,67.917,210.175-6.517,210.175-6.517L2561.295,2066.204z"/>
			
				<linearGradient id="SVGID_00000020370869136907769720000003184777417732978314_" gradientUnits="userSpaceOnUse" x1="3934.9807" y1="3207.6169" x2="3989.7747" y2="3207.6169" gradientTransform="matrix(-1 -0.0085 -0.0085 1 6466.7964 15.6603)">
				<stop  offset="0" style="stop-color:#444B8C"/>
				<stop  offset="0.9964" style="stop-color:#26264F"/>
			</linearGradient>
			<path style="fill:url(#SVGID_00000020370869136907769720000003184777417732978314_);" d="M2500.271,3170.75
				c0,0,4.397,4.187,4.345,11.524c-0.016,2.185-1.028,4.267-2.81,5.646c-3.912,3.027-12.554,8.991-25.986,14.454
				c-18.999,7.726-25.391,6.977-26.16,3.812c-0.768-3.165,9.04-11.696,17.448-19.149
				C2475.516,3179.581,2500.271,3170.75,2500.271,3170.75z"/>
			
				<linearGradient id="SVGID_00000111154253322259974350000011280060599445361335_" gradientUnits="userSpaceOnUse" x1="3954.9348" y1="3232.6917" x2="3940.8613" y2="3142.7207" gradientTransform="matrix(-1 -0.0085 -0.0085 1 6466.7964 15.6603)">
				<stop  offset="0" style="stop-color:#FFC444"/>
				<stop  offset="0.9964" style="stop-color:#F36F56"/>
			</linearGradient>
			<path style="fill:url(#SVGID_00000111154253322259974350000011280060599445361335_);" d="M2506.554,3141.329
				c0,0-6.237,28.645-5.815,39.121c0,0-7.631,6.645-18.355-0.156c0,0,5.731-26.153,3.111-37.039L2506.554,3141.329z"/>
			
				<linearGradient id="SVGID_00000041995030543212980500000008462859491746542738_" gradientUnits="userSpaceOnUse" x1="3721.344" y1="3220.5068" x2="3772.3804" y2="3220.5068" gradientTransform="matrix(-1 -0.0085 -0.0085 1 6466.7964 15.6603)">
				<stop  offset="0" style="stop-color:#444B8C"/>
				<stop  offset="0.9964" style="stop-color:#26264F"/>
			</linearGradient>
			<path style="fill:url(#SVGID_00000041995030543212980500000008462859491746542738_);" d="M2712.207,3182.4
				c0,0,4.934,3.537,5.897,10.812c0.287,2.166-0.427,4.368-2.001,5.98c-3.456,3.539-11.189,10.642-23.735,17.911
				c-17.747,10.282-24.181,10.425-25.38,7.396c-1.199-3.029,7.334-12.835,14.63-21.38
				C2688.913,3194.574,2712.207,3182.4,2712.207,3182.4z"/>
			
				<linearGradient id="SVGID_00000029739924391040245440000001902087244465327273_" gradientUnits="userSpaceOnUse" x1="3731.2131" y1="3234.4812" x2="3729.7053" y2="3151.5469" gradientTransform="matrix(-1 -0.0085 -0.0085 1 6466.7964 15.6603)">
				<stop  offset="0" style="stop-color:#FFC444"/>
				<stop  offset="0.9964" style="stop-color:#F36F56"/>
			</linearGradient>
			<path style="fill:url(#SVGID_00000029739924391040245440000001902087244465327273_);" d="M2721.321,3155.998
				c0,0-6.237,28.645-5.814,39.121c0,0-7.632,6.646-18.355-0.156c0,0,5.731-26.153,3.111-37.04L2721.321,3155.998z"/>
			
				<linearGradient id="SVGID_00000089574353979167505770000007870086944347809672_" gradientUnits="userSpaceOnUse" x1="3848.0825" y1="3274.8884" x2="3914.4302" y2="2741.0933" gradientTransform="matrix(-1 -0.0085 -0.0085 1 6466.7964 15.6603)">
				<stop  offset="0" style="stop-color:#40447E"/>
				<stop  offset="0.9964" style="stop-color:#3C3B6B"/>
			</linearGradient>
			<path style="fill:url(#SVGID_00000089574353979167505770000007870086944347809672_);" d="M2437.017,2541.255
				c-2.572,86.129-2.149,178.554,2.673,276.492c6.023,122.335,18.049,235.759,33.306,339.081c5.75,1.648,13.652,3.247,23.095,3.213
				c6.655-0.026,12.444-0.854,17.106-1.863c2.725-12.159,6.968-30.669,12.517-53.177c10.05-40.76,12.439-46.18,15.593-60.188
				c13.079-58.097-3.307-74.692,5.168-134.672c1.859-13.156,2.594-11.983,20.747-75.224
				c22.633-78.848,34.067-118.251,39.467-148.453c14.491-81.055,21.736-121.583-0.761-146.787
				C2576.529,2506.742,2507.478,2511.247,2437.017,2541.255z"/>
			
				<linearGradient id="SVGID_00000175319025630398476930000002750122939193304466_" gradientUnits="userSpaceOnUse" x1="3847.4973" y1="3274.8154" x2="3913.845" y2="2741.0208" gradientTransform="matrix(-1 -0.0085 -0.0085 1 6466.7964 15.6603)">
				<stop  offset="0" style="stop-color:#40447E"/>
				<stop  offset="0.9964" style="stop-color:#3C3B6B"/>
			</linearGradient>
			<path style="opacity:0.3;fill:url(#SVGID_00000175319025630398476930000002750122939193304466_);" d="M2492.514,3107.733
				c9.652-26.661-6.775-40.4-6.301-86.514c0.408-39.776,12.786-44.639,16.845-89.33c3.723-40.976-5.243-52.719-7.272-90.542
				c-3.822-71.295,24.528-94.96,30.428-149.537c4.062-37.577-2.279-92.347-51.786-164.116
				c56.454-16.846,107.353-15.067,131.497,11.982c22.497,25.204,15.252,65.731,0.761,146.787
				c-5.399,30.202-16.834,69.605-39.467,148.453c-18.152,63.24-18.888,62.067-20.747,75.224
				c-8.475,59.98,7.911,76.575-5.168,134.672c-3.153,14.008-5.543,19.427-15.593,60.188c-5.549,22.508-9.791,41.019-12.517,53.177
				c-4.662,1.009-10.451,1.837-17.106,1.863c-9.444,0.034-17.346-1.564-23.095-3.213c-0.932-6.311-1.851-12.66-2.758-19.048
				C2479.808,3129.969,2488.021,3120.145,2492.514,3107.733z"/>
			
				<linearGradient id="SVGID_00000062179888233976135740000005581350161333950138_" gradientUnits="userSpaceOnUse" x1="3624.51" y1="2747.5725" x2="3873.3054" y2="2905.897" gradientTransform="matrix(-1 -0.0085 -0.0085 1 6466.7964 15.6603)">
				<stop  offset="0" style="stop-color:#40447E"/>
				<stop  offset="0.9964" style="stop-color:#3C3B6B"/>
			</linearGradient>
			<path style="fill:url(#SVGID_00000062179888233976135740000005581350161333950138_);" d="M2529.553,2536.01
				c33.766,94.152,66.613,198.755,95.633,313.148c28.219,111.235,48.835,216.016,63.916,312.525c4.47,2.1,12.986,5.374,24.084,5.233
				c9.465-0.12,16.856-2.675,21.179-4.553c11.382-28.164,23.327-64.828,30.59-108.71c4.663-28.17,9.743-58.862,6.331-98.367
				c-4.533-52.489-18.905-60.899-25.178-112.814c-4.688-38.798,1.852-46.406,3.888-102.511
				c3.16-87.019,4.788-131.866-16.708-163.007C2687.109,2510.051,2551.95,2532.104,2529.553,2536.01z"/>
			
				<linearGradient id="SVGID_00000173879922919675805490000014094274839025208474_" gradientUnits="userSpaceOnUse" x1="2902.8232" y1="2093.3181" x2="1727.2338" y2="3571.9465">
				<stop  offset="0" style="stop-color:#AA80F9"/>
				<stop  offset="0.9964" style="stop-color:#6165D7"/>
			</linearGradient>
			<path style="fill:url(#SVGID_00000173879922919675805490000014094274839025208474_);" d="M2738.699,2706.929
				c-15.326-0.63-30.441-3.19-43.977-8.276c-67.508-25.425-236.716,16.658-292.826,0c-56.11-16.658,8.767-87.672,12.1-149.114
				c3.331-61.475-8.593-135.822,10.695-158.617c19.288-22.795,23.637-64.246,32.439-176.222
				c8.802-111.976,70.734-148.133,70.734-148.133c188.215-11.397,223.846,74.488,191.407,129.721
				c-7.435,12.659-14.168,25.776-19.85,39.031c-19.218,44.679-26.617,91.25-8.872,128.389
				c22.969,48.22,56.776,104.365,59.406,153.11c2.63,48.711,59.617,115.202,89.426,142.381
				C2863.229,2680.944,2799.649,2709.385,2738.699,2706.929z"/>
			
				<linearGradient id="SVGID_00000155866288285295210570000010793253600207721148_" gradientUnits="userSpaceOnUse" x1="3607.302" y1="6417.8589" x2="3589.3926" y2="6335.8218" gradientTransform="matrix(-0.9997 0.0253 -0.0253 -0.9997 6629.2725 8751.3066)">
				<stop  offset="0" style="stop-color:#FFC444"/>
				<stop  offset="0.9964" style="stop-color:#F36F56"/>
			</linearGradient>
			<path style="fill:url(#SVGID_00000155866288285295210570000010793253600207721148_);" d="M2911.316,2508.112
				c0,0-7.276,8.522-7.734,21.302s2.01,38.254-16.865,33.78c-18.875-4.473-28.678-0.577-24.359-15.279
				c0,0-6.106-14.758,11.421-22.337c17.527-7.58,19.403-26.128,19.403-26.128L2911.316,2508.112z"/>
			<g>
				
					<linearGradient id="SVGID_00000047752977077139117350000015300200727403514043_" gradientUnits="userSpaceOnUse" x1="3905.4355" y1="1981.7169" x2="3822.501" y2="2139.5442" gradientTransform="matrix(-1 -0.0085 -0.0085 1 6466.7964 15.6603)">
					<stop  offset="0" style="stop-color:#FFC444"/>
					<stop  offset="0.9964" style="stop-color:#F36F56"/>
				</linearGradient>
				<path style="fill:url(#SVGID_00000047752977077139117350000015300200727403514043_);" d="M2612.458,2016.18
					c-2.716,7.31-6.381,23.461,1.388,38.12c6.802,12.836,19.588,18.558,24.701,20.903c12.358,5.669,19.833,4.068,20.148,6.414
					c0.698,5.193-34.809,21.638-71.329,13.974c-21.463-4.503-41.719-17.007-40.308-23.91c1.584-7.746,29.16-2.119,38.801-17.067
					c6.16-9.552,2.275-23.288-2.612-34.302C2590.396,2014.395,2605.291,2022.109,2612.458,2016.18z"/>
				<g>
					
						<linearGradient id="SVGID_00000049205481172250335230000017420936572836768394_" gradientUnits="userSpaceOnUse" x1="3835.2998" y1="-364.8295" x2="3833.9846" y2="-484.0671" gradientTransform="matrix(-0.8903 -0.4554 -0.4554 0.8903 7724.9653 522.5142)">
						<stop  offset="0" style="stop-color:#FFC444"/>
						<stop  offset="0.9964" style="stop-color:#F36F56"/>
					</linearGradient>
					<path style="fill:url(#SVGID_00000049205481172250335230000017420936572836768394_);" d="M2610.637,2033.423
						c0,0-18.245,8.141-32.778-5.199c-12.986-11.921,10.578-48.206,24.777-48.626c4.74-0.139,11.364,3.481,15.033,8.761
						c2.168,3.122,2.154,5.196,5.799,10.216c3.364,4.637,4.967,5.06,5.36,7.305c0.491,2.81-1.086,7.5-11.274,15.529
						c4.838-0.91,8.846,0.442,10.211,3.405c0.217,0.474,0.632,1.949,0.357,3.47
						C2627.126,2033.792,2620.157,2036.31,2610.637,2033.423z"/>
				</g>
			</g>
			<g style="opacity:0.3;">
				
					<linearGradient id="SVGID_00000160895545943581676730000008570227161954619038_" gradientUnits="userSpaceOnUse" x1="2808.8572" y1="2232.7068" x2="2225.8203" y2="4190.0493">
					<stop  offset="0" style="stop-color:#AA80F9"/>
					<stop  offset="0.9964" style="stop-color:#6165D7"/>
				</linearGradient>
				<path style="fill:url(#SVGID_00000160895545943581676730000008570227161954619038_);" d="M2738.699,2706.929
					c-0.526-20.269-5.963-36.365-13.397-49.307c-35.104-61.371-124.004-67.438-128.071-116.288
					c-2.947-35.735,43.941-40.506,62.528-91.952c27.915-77.327-56.251-127.196-26.548-180.291
					c11.783-21.076,31.596-25.038,66.21-33.771c-19.218,44.679-26.617,91.25-8.872,128.389
					c22.969,48.22,56.776,104.365,59.406,153.11c2.63,48.711,59.617,115.202,89.426,142.381
					C2863.229,2680.944,2799.649,2709.385,2738.699,2706.929z"/>
			</g>
			
				<linearGradient id="SVGID_00000014623781632669018710000011069099572622614183_" gradientUnits="userSpaceOnUse" x1="2715.574" y1="2036.6614" x2="3342.7261" y2="4209.4385">
				<stop  offset="0" style="stop-color:#AA80F9"/>
				<stop  offset="0.9964" style="stop-color:#6165D7"/>
			</linearGradient>
			<path style="fill:url(#SVGID_00000014623781632669018710000011069099572622614183_);" d="M2675.443,2087.138
				c0,0,337.127,145.355,236.254,439.797l-32.862-15.901c0,0,65.32-211.049-220.129-283.5
				C2618.74,2167.942,2675.443,2087.138,2675.443,2087.138z"/>
		</g>
		<g>
			
				<linearGradient id="SVGID_00000179610963863433865050000002418744325454069920_" gradientUnits="userSpaceOnUse" x1="3736.6191" y1="1206.0889" x2="4391.1655" y2="2344.7244" gradientTransform="matrix(-0.9993 -0.0369 -0.0369 0.9993 6830.0493 134.7185)">
				<stop  offset="0.0036" style="stop-color:#E38DDD"/>
				<stop  offset="1" style="stop-color:#9571F6"/>
			</linearGradient>
			<path style="fill:url(#SVGID_00000179610963863433865050000002418744325454069920_);" d="M2532.218,1628.585
				c-32.332-43.477-50.005-93.141-48.09-144.941c5.568-150.629,175.581-264.422,382.43-254.028
				c209.891,10.547,377.685,144.59,371.968,299.253c-5.717,154.662-182.656,268.039-392.397,253.43
				c-77.822-5.42-149.102-27.718-207.406-61.367c-39.364,3.813-100.284,10.537-132.329,14.119
				c-9.421,1.053-16.755-8.39-13.086-16.84L2532.218,1628.585z"/>
			<g>
				<path style="fill:#FFFFFF;" d="M2739.673,1414.102c-0.639,1.912-2.765,2.979-5.958,2.765
					c-5.534,16.173-12.131,32.557-19.363,48.091l8.085,1.916c-0.425,2.126-2.127,3.614-5.744,4.042v134.909h-25.321v-99.162
					c-4.685,7.236-9.576,14.047-14.471,20.005c-3.404-5.748-10.854-17.026-15.321-22.556c18.938-22.132,37.663-61.496,48.73-99.162
					L2739.673,1414.102z M2864.367,1443.89c0,1.067-2.765,25.963-9.362,52.134l-15.745-2.765
					c12.127,22.556,22.556,51.709,26.384,71.497l-24.472,8.938c-2.976-19.787-13.405-50.218-24.893-72.774l22.128-7.874
					l-5.105-0.849c1.063-6.597,2.126-15.749,3.404-25.111h-26.174v110.226c0,19.577-4.256,28.729-41.28,28.729
					c-1.277-7.45-5.105-18.938-8.723-25.75c8.938,0.214,18.085,0.214,21.065,0.214c2.765,0,3.618-0.853,3.618-3.618v-109.801h-22.77
					c-6.808,14.896-14.468,28.3-22.981,38.94c-4.467-4.681-13.619-12.341-19.363-16.17c15.745-18.728,28.725-51.923,35.75-84.266
					l29.788,7.874c-0.638,1.702-2.551,2.979-5.744,2.765c-2.341,9.152-5.105,18.3-8.299,27.237h78.946L2864.367,1443.89z
					 M2779.252,1502.411c-0.425,1.702-2.555,2.765-5.32,2.765c-6.383,24.896-17.236,52.348-29.792,69.581
					c-4.891-3.828-14.257-9.573-20.001-12.552c11.917-15.324,21.707-42.133,27.027-67.03L2779.252,1502.411z"/>
				<path style="fill:#FFFFFF;" d="M2970.543,1447.083l13.619,3.193l-1.277,4.253c-2.551,36.175-8.085,65.966-17.871,89.8
					c9.573,7.871,18.085,15.745,23.405,22.556l-15.321,20.64c-4.681-6.172-11.492-13.194-19.363-20.43
					c-10.001,16.598-22.981,29.367-38.944,39.368c-3.404-6.383-10-15.535-15.32-20.216c14.257-7.66,25.96-19.577,35.112-35.322
					c-3.828-3.193-7.874-5.958-11.703-8.938l-1.702,6.807l-20.854-10.85c4.895-17.665,10.215-41.708,15.32-66.605h-16.812v-23.619
					h21.279c2.769-14.896,5.32-29.364,7.45-42.557l28.939,2.979c-0.214,1.916-1.916,3.19-5.534,3.404
					c-2.126,11.064-4.467,23.409-7.021,36.175h22.345L2970.543,1447.083z M2939.053,1471.341
					c-3.407,15.959-7.025,32.132-10.429,47.028c5.106,3.19,10.639,6.807,16.173,10.639c5.958-16.387,10.215-35.75,12.766-57.668
					H2939.053z M3098.22,1498.365v24.258h-46.814v54.902c0,21.065-7.236,28.725-47.028,28.3c-1.277-7.022-5.53-18.089-8.938-25.111
					c7.874,0.214,16.173,0.428,21.279,0.428c7.236,0,8.938,0,8.938-3.832v-54.688h-45.323v-24.258h45.323v-32.767l7.874,0.425
					c7.236-7.446,14.471-17.236,20.64-26.599h-66.177v-23.619h84.691l4.256-1.277l19.788,11.917
					c-0.849,1.488-2.979,2.555-5.106,2.979c-10.001,14.896-25.535,34.683-40.217,48.73v20.212H3098.22z"/>
			</g>
		</g>
		<g>
			<path style="fill:#D8DEE8;" d="M2358.86,704.729l13.007,26.773c-11.002,8.135-21.186,17.091-30.41,26.821l-24.575-16.627
				c-6.705-4.537-15.815-2.71-20.351,4.08l-28.397,42.507c-4.545,6.805-2.8,16.018,3.904,20.579l24.818,16.884
				c-5.445,12.436-9.836,25.328-13.096,38.536l-29.998-2.052c-8.089-0.554-15.127,5.65-15.722,13.858l-3.73,51.428
				c-0.598,8.239,5.488,15.381,13.597,15.947l30.113,2.106c1.371,13.434,3.959,26.863,7.7,40.162l-27.321,13.557
				c-7.335,3.64-10.405,12.639-6.856,20.104l22.242,46.784c3.564,7.497,12.419,10.619,19.775,6.969l27.402-13.598
				c8.006,11.286,16.844,21.744,26.457,31.241L2330.4,1116.5c-4.59,6.934-2.803,16.363,3.996,21.063l42.594,29.443
				c6.824,4.717,16.083,2.901,20.674-4.058l17.003-25.769c12.436,5.686,25.341,10.255,38.557,13.682l-2.024,31.031
				c-0.548,8.402,5.683,15.713,13.919,16.325l51.564,3.831c8.255,0.614,15.376-5.715,15.903-14.131l1.929-30.772
				c13.499-1.375,26.978-4.032,40.311-7.883l13.479,27.746c3.69,7.595,12.698,10.772,20.118,7.09l46.402-23.026
				c7.42-3.682,10.423-12.819,6.711-20.403l-13.452-27.485c11.263-8.276,21.656-17.423,31.063-27.364l24.963,16.982
				c6.931,4.715,16.247,2.888,20.803-4.083l28.463-43.543c4.546-6.955,2.608-16.396-4.324-21.086l-24.852-16.815
				c5.506-12.78,9.871-26.035,13.073-39.596l29.579,2.068c8.267,0.579,15.344-5.712,15.804-14.044l2.877-52.006
				c0.459-8.302-5.856-15.485-14.101-16.049l-29.283-2.003c-1.579-13.706-4.439-27.381-8.483-40.892l26.205-13.003
				c7.356-3.65,10.31-12.632,6.598-20.056l-23.162-46.328c-3.696-7.392-12.637-10.431-19.971-6.791l-26.127,12.965
				c-8.298-11.294-17.421-21.726-27.322-31.148l16.015-24.273c4.504-6.825,2.612-16.048-4.223-20.599l-42.66-28.408
				c-6.809-4.534-15.976-2.696-20.478,4.106l-16.132,24.371c-12.528-5.487-25.497-9.876-38.763-13.088l1.834-29.251
				c0.51-8.14-5.659-15.158-13.777-15.679l-50.71-3.252c-8.1-0.519-15.094,5.645-15.624,13.772l-1.914,29.341
				c-13.319,1.505-26.613,4.241-39.754,8.163l-12.98-26.521c-3.572-7.297-12.362-10.285-19.634-6.677l-45.482,22.569
				C2358.328,688.573,2355.31,697.42,2358.86,704.729z M2375.048,986.989c-36.147-75.154-5.484-165.425,68.293-202.035
				c73.776-36.61,163.38-6.018,200.335,68.734c37.179,75.205,7.02,166.51-67.567,203.522
				C2501.522,1094.222,2411.415,1062.597,2375.048,986.989z"/>
		</g>
	</g>
</g>
</svg>
